<svg width="96" height="90" viewBox="0 0 96 90" fill="none" xmlns="http://www.w3.org/2000/svg">
<path d="M58.3995 56.0499L58.3995 56.05C58.8431 56.4712 59.4118 56.6797 59.9799 56.6797C60.5877 56.6797 61.1925 56.4401 61.6461 55.9641C62.5172 55.0453 62.4794 53.5931 61.5603 52.7185L58.3995 56.0499ZM58.3995 56.0499L48.296 46.4588C47.8383 46.0236 47.5807 45.4229 47.5807 44.7929V29.1211C47.5807 27.8521 48.6072 26.8256 49.8762 26.8256C51.1451 26.8256 52.1717 27.8521 52.1717 29.1211V43.6427V43.8065L52.2905 43.9193L61.56 52.7182L58.3995 56.0499ZM7.82058 58.1976L7.82055 58.1975C4.45072 47.3556 5.34109 35.8997 10.2133 25.7103L10.6307 24.8372L9.7299 25.1907L3.51688 27.6286C2.33595 28.0888 1.00271 27.5111 0.541609 26.3315L0.541289 26.3307C0.0772953 25.1516 0.657991 23.8181 1.83884 23.3566L1.8393 23.3564L14.0239 18.5751L14.0249 18.5747C14.7995 18.2681 15.6664 18.3164 16.3996 18.7014C17.1285 19.0855 17.655 19.7718 17.8447 20.5885L17.8447 20.5886L20.8065 33.3325C21.0936 34.5681 20.3268 35.8006 19.0919 36.0875L19.0879 36.0884C18.9172 36.13 18.7439 36.1482 18.5691 36.1482C17.5268 36.1482 16.5834 35.4326 16.3369 34.3728L16.3369 34.3727L14.888 28.1453L14.6374 27.0683L14.1707 28.0708C9.96205 37.1132 9.22277 47.2433 12.2054 56.8371C15.3829 67.0661 22.354 75.4468 31.8362 80.432C51.4065 90.7225 75.7004 83.1771 85.9962 63.6015C90.9814 54.1246 91.9792 43.268 88.7991 33.0389C85.6216 22.8099 78.6505 14.4292 69.1684 9.44143L69.1683 9.44138C64.3789 6.92398 59.2372 5.41668 53.887 4.96533L53.8866 4.9653C52.6226 4.85997 51.6857 3.74837 51.7933 2.48652L51.7934 2.48585C51.8989 1.22117 53.0331 0.269755 54.2669 0.392031L54.2669 0.392072L54.2725 0.392542C60.2365 0.895371 65.9669 2.57215 71.3073 5.37971C81.873 10.9374 89.643 20.2754 93.1839 31.6758L93.5482 31.5627L93.184 31.6759C96.7275 43.0789 95.6156 55.1745 90.058 65.7403L90.3955 65.9179L90.0579 65.7403C82.0698 80.9312 66.5077 89.6259 50.4251 89.6259C43.422 89.6259 36.3177 87.975 29.6973 84.4937C19.1315 78.9386 11.3615 69.6006 7.82058 58.1976Z" fill="black" stroke="#E7E3E8" stroke-width="0.762773"/>
</svg>
