<svg width="42" height="42" viewBox="0 0 42 42" fill="none" xmlns="http://www.w3.org/2000/svg">
<g clip-path="url(#clip0_3784_29)">
<path d="M29.75 0C22.8813 0 17.5 3.07475 17.5 7V14.6615C15.9145 14.2415 14.1417 14 12.25 14C5.38125 14 0 17.0747 0 21V35C0 38.9253 5.38125 42 12.25 42C19.1187 42 24.5 38.9253 24.5 35V34.3262C26.1328 34.7602 27.9213 35 29.75 35C36.6187 35 42 31.9253 42 28V7C42 3.07475 36.6187 0 29.75 0ZM40.25 21C40.25 23.8455 35.441 26.25 29.75 26.25C27.8933 26.25 26.0995 25.9858 24.5 25.508V21C24.5 20.7708 24.4773 20.545 24.4423 20.3227C26.0838 20.7655 27.8862 21 29.75 21C34.2668 21 38.1272 19.6665 40.25 17.64V21ZM1.75 24.64C3.87275 26.6665 7.73325 28 12.25 28C16.7668 28 20.6272 26.6665 22.75 24.64V28C22.75 30.8455 17.941 33.25 12.25 33.25C6.559 33.25 1.75 30.8455 1.75 28V24.64ZM29.75 1.75C35.441 1.75 40.25 4.1545 40.25 7C40.25 9.8455 35.441 12.25 29.75 12.25C24.059 12.25 19.25 9.8455 19.25 7C19.25 4.1545 24.059 1.75 29.75 1.75ZM19.25 10.64C21.3728 12.6665 25.2332 14 29.75 14C34.2668 14 38.1272 12.6665 40.25 10.64V14C40.25 16.8455 35.441 19.25 29.75 19.25C27.4802 19.25 25.3207 18.8773 23.492 18.1773C22.5855 16.9733 21.112 15.9548 19.25 15.2233V10.64ZM12.25 15.75C17.941 15.75 22.75 18.1545 22.75 21C22.75 23.8455 17.941 26.25 12.25 26.25C6.559 26.25 1.75 23.8455 1.75 21C1.75 18.1545 6.559 15.75 12.25 15.75ZM12.25 40.25C6.559 40.25 1.75 37.8455 1.75 35V31.64C3.87275 33.6665 7.73325 35 12.25 35C16.7668 35 20.6272 33.6665 22.75 31.64V35C22.75 37.8455 17.941 40.25 12.25 40.25ZM29.75 33.25C27.9002 33.25 26.0995 32.9892 24.5 32.5115V27.328C26.131 27.762 27.9177 27.9982 29.75 27.9982C34.2668 27.9982 38.1272 26.6648 40.25 24.6383V27.9982C40.25 30.8437 35.441 33.25 29.75 33.25Z" fill="black"/>
</g>
<defs>
<clipPath id="clip0_3784_29">
<rect width="42" height="42" fill="white"/>
</clipPath>
</defs>
</svg>
