<svg width="34" height="34" viewBox="0 0 34 34" fill="none" xmlns="http://www.w3.org/2000/svg">
<g opacity="0.75">
<path d="M11.3958 5.19836C10.3156 5.19836 7.05886 6.51953 6.47457 6.78357C5.89029 7.0476 5.24175 7.87182 4.50587 9.23214C3.76899 10.5925 3.17768 12.1827 2.21692 14.5218C1.25716 16.861 1.03329 21.3706 1.06541 22.747C1.09754 24.1234 1.25516 25.1986 2.66567 26.0128C4.07519 26.826 5.32207 27.6773 6.6342 28.1893C7.94734 28.7013 8.84284 29.0697 9.45122 28.5577C10.0596 28.0457 10.4602 27.1492 10.4602 27.1492C10.4602 27.1492 11.0364 26.3491 9.94816 25.8692C8.85991 25.3883 8.31578 25.052 8.36296 24.5561C8.41115 24.0601 8.49046 23.7881 8.76252 23.8523C9.03459 23.9166 9.6761 25.0681 12.1407 25.5962C14.6054 26.1242 17.0078 26.0449 17.0078 26.0449C17.0078 26.0449 19.4112 26.1252 21.8758 25.5962C24.3405 25.0681 24.981 23.9166 25.253 23.8523C25.5251 23.7881 25.6044 24.0601 25.6526 24.5551C25.7008 25.052 25.1567 25.3883 24.0684 25.8692C22.9801 26.3491 23.5564 27.1492 23.5564 27.1492C23.5564 27.1492 23.957 28.0447 24.5653 28.5577C25.1727 29.0697 26.0692 28.7013 27.3814 28.1893C28.6935 27.6773 29.9414 26.827 31.3509 26.0128C32.7614 25.1986 32.919 24.1234 32.9511 22.747C32.9833 21.3716 32.7594 16.861 31.7986 14.5218C30.8389 12.1827 30.2466 10.5925 29.5097 9.23214C28.7748 7.87182 28.1253 7.0476 27.542 6.78256C26.9577 6.51953 23.7 5.19836 22.6197 5.19836C21.5395 5.19836 21.2203 5.95131 21.2203 5.95131L20.8438 6.78357C20.8438 6.78357 18.3139 6.30268 17.0248 6.30168C15.7358 6.30168 13.1728 6.78357 13.1728 6.78357L12.7963 5.95031C12.7963 5.95031 12.4771 5.19836 11.3958 5.19836ZM11.5133 15.1854H11.5534C13.1286 15.1854 14.4046 16.5638 14.4046 18.2635C14.4046 19.9641 13.1286 21.3415 11.5534 21.3415C9.97828 21.3415 8.70229 19.9641 8.70229 18.2635C8.70128 16.5799 9.95419 15.2085 11.5133 15.1854ZM22.4631 15.1854H22.5033C24.0624 15.2085 25.3143 16.5809 25.3143 18.2635C25.3143 19.9641 24.0383 21.3415 22.4631 21.3415C20.887 21.3415 19.612 19.9641 19.612 18.2635C19.612 16.5638 20.887 15.1854 22.4631 15.1854Z" fill="black"/>
</g>
</svg>
