<svg width="46" height="48" viewBox="0 0 46 48" fill="none" xmlns="http://www.w3.org/2000/svg">
    <path d="M11.3558 6.44758C11.3552 6.39021 11.34 6.33602 11.3143 6.28616C11.2748 6.20949 11.2126 6.14485 11.1321 6.11031L6.00793 3.86286C5.91428 3.82175 5.80775 3.82175 5.7141 3.86286L0.589902 6.11031C0.45861 6.16791 0.369432 6.30475 0.366211 6.44763V12.1922C0.37442 12.2397 0.375405 12.2904 0.394392 12.3356C0.437828 12.4195 0.497704 12.4911 0.585339 12.5329L5.7141 14.7824C5.80774 14.8234 5.91428 14.8234 6.00793 14.7824L11.1367 12.5329C11.2544 12.4736 11.3458 12.3582 11.3502 12.2236C11.3745 12.2052 11.3445 6.47313 11.3558 6.44758ZM5.49499 13.8869L1.09828 11.9585V7.00792L5.49499 8.93644V13.8869ZM5.86102 8.29764L1.64341 6.44763L5.86102 4.59779L10.0786 6.44763L5.86102 8.29764ZM10.6237 11.9585L6.22706 13.8869V8.93644L10.6237 7.00792L10.6237 11.9585Z" fill="black" stroke="black" stroke-width="0.2"/>
    <path d="M11.3558 21.4476C11.3552 21.3902 11.34 21.336 11.3143 21.2862C11.2748 21.2095 11.2126 21.1448 11.1321 21.1103L6.00793 18.8629C5.91428 18.8218 5.80775 18.8218 5.7141 18.8629L0.589902 21.1103C0.45861 21.1679 0.369432 21.3047 0.366211 21.4476V27.1922C0.37442 27.2397 0.375405 27.2904 0.394392 27.3356C0.437828 27.4195 0.497704 27.4911 0.585339 27.5329L5.7141 29.7824C5.80774 29.8234 5.91428 29.8234 6.00793 29.7824L11.1367 27.5329C11.2544 27.4736 11.3458 27.3582 11.3502 27.2236C11.3745 27.2052 11.3445 21.4731 11.3558 21.4476ZM5.49499 28.8869L1.09828 26.9585V22.0079L5.49499 23.9364V28.8869ZM5.86102 23.2976L1.64341 21.4476L5.86102 19.5978L10.0786 21.4476L5.86102 23.2976ZM10.6237 26.9585L6.22706 28.8869V23.9364L10.6237 22.0079L10.6237 26.9585Z" fill="black" stroke="black" stroke-width="0.2"/>
    <path d="M11.3558 36.4476C11.3552 36.3902 11.34 36.336 11.3143 36.2862C11.2748 36.2095 11.2126 36.1448 11.1321 36.1103L6.00793 33.8629C5.91428 33.8218 5.80775 33.8218 5.7141 33.8629L0.589902 36.1103C0.45861 36.1679 0.369432 36.3047 0.366211 36.4476V42.1922C0.37442 42.2397 0.375405 42.2904 0.394392 42.3356C0.437828 42.4195 0.497704 42.4911 0.585339 42.5329L5.7141 44.7824C5.80774 44.8234 5.91428 44.8234 6.00793 44.7824L11.1367 42.5329C11.2544 42.4736 11.3458 42.3582 11.3502 42.2236C11.3745 42.2052 11.3445 36.4731 11.3558 36.4476ZM5.49499 43.8869L1.09828 41.9585V37.0079L5.49499 38.9364V43.8869ZM5.86102 38.2976L1.64341 36.4476L5.86102 34.5978L10.0786 36.4476L5.86102 38.2976ZM10.6237 41.9585L6.22706 43.8869V38.9364L10.6237 37.0079L10.6237 41.9585Z" fill="black" stroke="black" stroke-width="0.2"/>
    <path d="M8 11H15.7516" stroke="black" stroke-linecap="round"/>
    <path d="M16 11L16 41" stroke="black" stroke-linecap="round"/>
    <path d="M8.24805 25.4409H19.4779" stroke="black" stroke-linecap="round"/>
    <path d="M8 41H15.7516" stroke="black" stroke-linecap="round"/>
    <circle cx="32.1992" cy="14.5092" r="7.9472" stroke="black"/>
    <path d="M33.7515 16.8317L32.1614 19.0667L30.5714 16.8327L31.904 17.6197L32.1565 17.7688L32.4089 17.6197L33.7515 16.8317ZM35.5065 15.2188L32.1614 17.1914L28.8203 15.2188L32.1614 19.9253L35.5035 15.2188H35.5065Z" fill="black"/>
    <path d="M32.1614 10.0064L34.8168 14.4129L32.1614 15.9821L29.505 14.4129L32.1614 10.0064ZM32.1614 9.04346L28.8203 14.5838L32.1614 16.5595L35.5006 14.5838L32.1614 9.04346Z" fill="black"/>
    <path d="M31.9121 17.1914H32.409V19.3281H31.9121V17.1914Z" fill="black"/>
    <path d="M31.9121 9.70923H32.409V15.9731H31.9121V9.70923Z" fill="black"/>
    <path d="M32.1614 13.613L34.4273 14.6435L32.1614 15.9832L29.8946 14.6435L32.1614 13.613ZM32.1614 13.0674L28.8203 14.5839L32.1614 16.5596L35.5006 14.5839L32.1614 13.0674Z" fill="black"/>
    <line x1="19.7764" y1="39.6492" x2="44.7205" y2="39.6492" stroke="black"/>
    <rect x="19.5811" y="0.5" width="25.236" height="47" rx="1.48758" stroke="black"/>
    <rect x="22.4" y="31.4" width="4.76522" height="4.76522" rx="0.593789" stroke="black" stroke-width="0.8"/>
    <rect x="29.7652" y="31.4" width="4.76522" height="4.76522" rx="0.593789" stroke="black" stroke-width="0.8"/>
    <rect x="37.1305" y="31.4" width="4.76522" height="4.76522" rx="0.593789" stroke="black" stroke-width="0.8"/>
</svg>
