<svg width="63" height="63" viewBox="0 0 63 63" fill="none" xmlns="http://www.w3.org/2000/svg">
    <path d="M59.9568 27.1962C58.7792 27.1962 57.7752 27.9513 57.4021 29.0028H52.2485V27.949C52.2485 27.4503 51.8444 27.0457 51.3452 27.0457C50.8465 27.0457 50.4419 27.4503 50.4419 27.949V32.3526C50.4419 36.8575 48.9316 41.0993 46.1892 44.2962C42.3591 48.7596 37.5301 52.1536 31.8335 54.386C26.7406 52.3903 22.328 49.4569 18.7166 45.6662C18.3722 45.3049 17.8006 45.2908 17.4393 45.6352C17.0784 45.9791 17.0643 46.5507 17.4082 46.912C18.655 48.2204 19.993 49.4296 21.4153 50.5404V57.4023C20.3642 57.7749 19.6086 58.7789 19.6086 59.957C19.6086 61.4512 20.8244 62.6669 22.3186 62.6669C23.8128 62.6669 25.0285 61.4512 25.0285 59.957C25.0285 58.7794 24.2734 57.7749 23.2219 57.4023V51.8638C25.7013 53.5698 28.4094 54.9977 31.3301 56.1292C31.4929 56.1917 31.6632 56.2233 31.834 56.2233C32.0043 56.2233 32.1746 56.1917 32.3365 56.1292C38.3788 53.789 43.5009 50.204 47.5607 45.4724C49.4388 43.2832 50.7919 40.6552 51.5484 37.7951H54.6018C54.9749 38.8466 55.9789 39.6018 57.1565 39.6018C58.6508 39.6018 59.8665 38.386 59.8665 36.8918C59.8665 35.3976 58.6508 34.1819 57.1565 34.1819C55.9789 34.1819 54.9749 34.9374 54.6018 35.9885H51.9413C52.1445 34.8029 52.2485 33.5862 52.2485 32.3526V30.8095H57.4021C57.7752 31.861 58.7792 32.6161 59.9568 32.6161C61.451 32.6161 62.6668 31.4004 62.6668 29.9062C62.6668 28.4119 61.451 27.1962 59.9568 27.1962ZM22.3186 60.8598C21.8204 60.8598 21.4153 60.4547 21.4153 59.9565C21.4153 59.4583 21.8204 59.0532 22.3186 59.0532C22.8168 59.0532 23.2219 59.4583 23.2219 59.9565C23.2219 60.4547 22.8168 60.8598 22.3186 60.8598ZM57.1565 35.9885C57.6548 35.9885 58.0598 36.3936 58.0598 36.8918C58.0598 37.39 57.6548 37.7951 57.1565 37.7951C56.6583 37.7951 56.2532 37.39 56.2532 36.8918C56.2532 36.3936 56.6583 35.9885 57.1565 35.9885ZM59.9568 30.8095C59.4586 30.8095 59.0535 30.4044 59.0535 29.9062C59.0535 29.4079 59.4586 29.0028 59.9568 29.0028C60.455 29.0028 60.8601 29.4079 60.8601 29.9062C60.8601 30.4044 60.455 30.8095 59.9568 30.8095Z" fill="black" stroke="white" stroke-width="0.5"/>
    <path d="M13.2249 32.3526V15.9198C16.5385 15.1364 19.981 13.6765 23.4634 11.5768C28.626 8.4646 35.0405 8.4646 40.203 11.5768C41.7528 12.5107 43.2941 13.3176 44.8198 13.9951C44.8368 14.0031 44.8537 14.0111 44.8716 14.0176C46.7572 14.8518 48.6189 15.4888 50.4416 15.9198V24.0845C50.4416 24.5836 50.8457 24.9878 51.3449 24.9878C51.844 24.9878 52.2482 24.5836 52.2482 24.0845V15.5881C52.2482 14.9421 51.8031 14.3743 51.1896 14.2378C49.5307 13.869 47.8313 13.3148 46.1056 12.5836V6.26464C47.1572 5.89156 47.9123 4.88756 47.9123 3.70995C47.9123 2.21571 46.6966 1 45.2023 1C43.7081 1 42.4924 2.21571 42.4924 3.70995C42.4924 4.88756 43.248 5.89156 44.299 6.26464V11.7589C43.2522 11.2456 42.1969 10.6693 41.136 10.0299C35.398 6.57045 28.2684 6.57093 22.5309 10.0299C19.0908 12.1033 15.7081 13.5194 12.4768 14.2378C11.8633 14.3743 11.4183 14.9421 11.4183 15.5881V21.0536H6.26465C5.89156 20.0021 4.88756 19.247 3.70995 19.247C2.21571 19.247 1 20.4627 1 21.957C1 23.4512 2.21571 24.6669 3.70995 24.6669C4.88756 24.6669 5.89156 23.9118 6.26465 22.8603H11.4183V28.0393H9.06493C8.69184 26.9878 7.68784 26.2327 6.51023 26.2327C5.016 26.2327 3.80028 27.4484 3.80028 28.9426C3.80028 30.4368 5.016 31.6526 6.51023 31.6526C7.68784 31.6526 8.69184 30.8974 9.06493 29.8459H11.4183V32.3526C11.4183 36.682 12.6688 40.7427 15.0339 44.0953C15.2098 44.3446 15.4893 44.4778 15.773 44.4778C15.9527 44.4778 16.1348 44.4241 16.2929 44.3126C16.7003 44.0247 16.7977 43.4611 16.5102 43.0536C14.3611 40.0073 13.2249 36.307 13.2249 32.3526ZM45.2023 2.80663C45.7006 2.80663 46.1056 3.21172 46.1056 3.70995C46.1056 4.20819 45.7006 4.61327 45.2023 4.61327C44.7041 4.61327 44.299 4.20819 44.299 3.70995C44.299 3.21172 44.7041 2.80663 45.2023 2.80663ZM3.70995 22.8603C3.21172 22.8603 2.80663 22.4552 2.80663 21.957C2.80663 21.4587 3.21172 21.0536 3.70995 21.0536C4.20819 21.0536 4.61327 21.4587 4.61327 21.957C4.61327 22.4552 4.20819 22.8603 3.70995 22.8603ZM6.51023 29.8459C6.012 29.8459 5.60692 29.4408 5.60692 28.9426C5.60692 28.4444 6.012 28.0393 6.51023 28.0393C7.00847 28.0393 7.41355 28.4444 7.41355 28.9426C7.41355 29.4408 7.00847 29.8459 6.51023 29.8459Z" fill="black" stroke="white" stroke-width="0.5"/>
    <path d="M21.8955 16.5554C22.3425 16.3342 22.526 15.7922 22.3048 15.3453C22.0837 14.8983 21.5417 14.7148 21.0943 14.936C19.385 15.7814 17.6687 16.4829 15.9938 17.0211C15.418 17.206 15.0312 17.7358 15.0312 18.3394V32.3526C15.0312 36.4265 16.3867 40.25 18.8478 43.119C22.2169 47.0456 26.4168 50.1094 31.3314 52.2265C31.4904 52.2952 31.6617 52.3295 31.8329 52.3295C32.0042 52.3295 32.1755 52.2952 32.3349 52.2265C37.2491 50.1098 41.4486 47.0461 44.8172 43.1199C47.2787 40.25 48.6346 36.4265 48.6346 32.3526V18.3394C48.6346 17.7358 48.2479 17.206 47.672 17.0211C44.9198 16.1371 42.0931 14.8259 39.2703 13.1242C37.027 11.7715 34.4554 11.0569 31.8329 11.0569C29.211 11.0569 26.6393 11.7715 24.3956 13.1242L24.2037 13.2394C23.7751 13.4949 23.6349 14.0496 23.8903 14.4782C24.1458 14.9068 24.7 15.047 25.1286 14.7915C25.1954 14.7515 25.2623 14.7116 25.3286 14.6716C27.2905 13.4888 29.5398 12.8635 31.8329 12.8635C34.1265 12.8635 36.3759 13.4888 38.3378 14.6716C41.1809 16.3855 44.0357 17.7217 46.828 18.6462V32.3521C46.828 35.995 45.6269 39.4013 43.4462 41.9433C40.3067 45.6022 36.4003 48.4716 31.8329 50.4744C27.2651 48.4711 23.3587 45.6017 20.2192 41.9428C18.0385 39.4008 16.8379 35.995 16.8379 32.3521V18.6462C18.5048 18.0943 20.2046 17.3914 21.8955 16.5554Z" fill="black" stroke="white" stroke-width="0.5"/>
    <path d="M31.8327 22.1377C29.3424 22.1377 27.3161 24.1636 27.3161 26.6543V28.1598H27.015C25.8529 28.1598 24.9072 29.1055 24.9072 30.2675V37.4941C24.9072 38.6562 25.8529 39.6018 27.015 39.6018H36.6503C37.8124 39.6018 38.7581 38.6562 38.7581 37.4941V30.2675C38.7581 29.1055 37.8124 28.1598 36.6503 28.1598H36.3492V26.6543C36.3492 24.1636 34.3234 22.1377 31.8327 22.1377ZM29.1227 26.6543C29.1227 25.16 30.3384 23.9443 31.8327 23.9443C33.3269 23.9443 34.5426 25.16 34.5426 26.6543V28.1598H29.1227V26.6543ZM36.9515 30.2675V37.4941C36.9515 37.6602 36.8164 37.7952 36.6503 37.7952H27.015C26.8489 37.7952 26.7139 37.6602 26.7139 37.4941V30.2675C26.7139 30.1015 26.8489 29.9664 27.015 29.9664H36.6503C36.8164 29.9664 36.9515 30.1015 36.9515 30.2675Z" fill="black" stroke="white" stroke-width="0.5"/>
    <path d="M31.833 30.2676C30.3388 30.2676 29.123 31.4833 29.123 32.9775C29.123 34.1551 29.8786 35.1591 30.9297 35.5322V36.5908C30.9297 37.0895 31.3343 37.4941 31.833 37.4941C32.3322 37.4941 32.7363 37.0895 32.7363 36.5908V35.5322C33.7878 35.1591 34.5429 34.1551 34.5429 32.9775C34.5429 31.4833 33.3272 30.2676 31.833 30.2676ZM31.833 33.8808C31.3348 33.8808 30.9297 33.4758 30.9297 32.9775C30.9297 32.4793 31.3348 32.0742 31.833 32.0742C32.3312 32.0742 32.7363 32.4793 32.7363 32.9775C32.7363 33.4758 32.3312 33.8808 31.833 33.8808Z" fill="black" stroke="white" stroke-width="0.5"/>
</svg>
