<svg width="42" height="50" viewBox="0 0 42 50" fill="none" xmlns="http://www.w3.org/2000/svg">
    <path fill-rule="evenodd" clip-rule="evenodd" d="M20.3484 2.23394L39.1258 13.6087L20.346 24.9682C20.1532 25.0848 20.0541 25.2972 20.0726 25.5074C20.0714 25.5229 20.0708 25.5386 20.0709 25.5545L20.1182 36.9002L2.22391 25.7359C2.19735 25.7193 2.16996 25.7052 2.142 25.6935V24.8001V12.6772L11.5416 7.28555L22.0025 13.77C22.2705 13.9362 22.6225 13.8536 22.7886 13.5856C22.9548 13.3175 22.8722 12.9656 22.6042 12.7994L12.6673 6.63982L20.3484 2.23394ZM20.652 1.08271C20.4626 0.968019 20.2332 0.976317 20.0567 1.08475L1.42472 11.7722C1.18026 11.8368 1.00005 12.0594 1.00005 12.3242V24.8001V36.7427C1.00005 37.058 1.25568 37.3137 1.57102 37.3137C1.88636 37.3137 2.142 37.058 2.142 36.7427V27.0308L20.1238 38.2497L20.1661 48.3934C20.1672 48.657 20.3466 48.878 20.5896 48.9428C20.756 49.0233 20.9584 49.0216 21.1294 48.9204L40.9376 37.2008C41.209 37.0402 41.2988 36.6901 41.1382 36.4187C40.9777 36.1473 40.6275 36.0574 40.3561 36.218L21.3042 47.4901L21.2665 38.4231L40.8259 26.612C41.0958 26.449 41.1825 26.098 41.0195 25.8281C40.8565 25.5581 40.5055 25.4714 40.2356 25.6345L21.2609 37.0925L21.2138 25.7779L40.4452 14.1452C40.6368 14.0293 40.7359 13.8187 40.7189 13.6097C40.7364 13.4005 40.6374 13.1893 40.4456 13.0731L20.652 1.08271Z" fill="black"/>
    <path d="M39.1258 13.6087L39.352 13.9828L39.9699 13.609L39.3523 13.2348L39.1258 13.6087ZM20.3484 2.23394L20.5749 1.86004L20.3544 1.7265L20.1309 1.85474L20.3484 2.23394ZM20.346 24.9682L20.5722 25.3423H20.5722L20.346 24.9682ZM20.0726 25.5074L20.5085 25.5412L20.5113 25.5051L20.5081 25.469L20.0726 25.5074ZM20.0709 25.5545L20.508 25.5527V25.5527L20.0709 25.5545ZM20.1182 36.9002L19.8868 37.2711L20.5586 37.6903L20.5553 36.8984L20.1182 36.9002ZM2.22391 25.7359L2.45531 25.365L2.4553 25.365L2.22391 25.7359ZM2.142 25.6935H1.70485V25.9841L1.97284 26.0966L2.142 25.6935ZM2.142 12.6772L1.92449 12.298L1.70485 12.424V12.6772H2.142ZM11.5416 7.28555L11.7719 6.91399L11.5503 6.77661L11.3241 6.90635L11.5416 7.28555ZM22.0025 13.77L22.2328 13.3985L22.2328 13.3985L22.0025 13.77ZM22.7886 13.5856L22.4171 13.3552L22.7886 13.5856ZM22.6042 12.7994L22.8345 12.4279L22.8345 12.4279L22.6042 12.7994ZM12.6673 6.63982L12.4498 6.26063L11.8141 6.62527L12.437 7.01138L12.6673 6.63982ZM20.0567 1.08475L20.2744 1.46412L20.2856 1.4572L20.0567 1.08475ZM20.652 1.08271L20.4255 1.45661V1.45661L20.652 1.08271ZM1.42472 11.7722L1.53643 12.1948L1.59219 12.1801L1.64223 12.1514L1.42472 11.7722ZM2.142 27.0308L2.37339 26.6599L1.70485 26.2428V27.0308H2.142ZM20.1238 38.2497L20.5609 38.2479L20.5599 38.0065L20.3552 37.8788L20.1238 38.2497ZM20.1661 48.3934L19.7289 48.3952V48.3952L20.1661 48.3934ZM20.5896 48.9428L20.7799 48.5493L20.7424 48.5311L20.7022 48.5204L20.5896 48.9428ZM21.1294 48.9204L20.9068 48.5441H20.9068L21.1294 48.9204ZM40.9376 37.2008L40.715 36.8246L40.9376 37.2008ZM41.1382 36.4187L40.762 36.6413L41.1382 36.4187ZM40.3561 36.218L40.1335 35.8418L40.3561 36.218ZM21.3042 47.4901L20.8671 47.4919L20.8703 48.2548L21.5268 47.8663L21.3042 47.4901ZM21.2665 38.4231L21.0405 38.0489L20.8283 38.1771L20.8293 38.425L21.2665 38.4231ZM40.8259 26.612L41.0519 26.9862L40.8259 26.612ZM41.0195 25.8281L40.6453 26.054L40.6453 26.0541L41.0195 25.8281ZM40.2356 25.6345L40.4616 26.0087L40.2356 25.6345ZM21.2609 37.0925L20.8238 37.0943L20.827 37.8652L21.4869 37.4667L21.2609 37.0925ZM21.2138 25.7779L20.9875 25.4039L20.7756 25.5321L20.7766 25.7797L21.2138 25.7779ZM40.4452 14.1452L40.6715 14.5193V14.5193L40.4452 14.1452ZM40.7189 13.6097L40.2832 13.5731L40.2802 13.6092L40.2832 13.6453L40.7189 13.6097ZM40.4456 13.0731L40.6721 12.6993V12.6993L40.4456 13.0731ZM39.3523 13.2348L20.5749 1.86004L20.1219 2.60784L38.8993 13.9826L39.3523 13.2348ZM20.5722 25.3423L39.352 13.9828L38.8995 13.2347L20.1197 24.5942L20.5722 25.3423ZM20.5081 25.469C20.5036 25.4186 20.5276 25.3693 20.5722 25.3423L20.1197 24.5942C19.7789 24.8003 19.6045 25.1758 19.6371 25.5458L20.5081 25.469ZM20.508 25.5527C20.508 25.5487 20.5082 25.5449 20.5085 25.5412L19.6368 25.4736C19.6346 25.501 19.6336 25.5286 19.6337 25.5563L20.508 25.5527ZM20.5553 36.8984L20.508 25.5527L19.6337 25.5563L19.681 36.902L20.5553 36.8984ZM1.99251 26.1068L19.8868 37.2711L20.3496 36.5293L2.45531 25.365L1.99251 26.1068ZM1.97284 26.0966C1.97931 26.0993 1.98588 26.1026 1.99252 26.1068L2.4553 25.365C2.40882 25.336 2.36061 25.3111 2.31115 25.2904L1.97284 26.0966ZM1.70485 24.8001V25.6935H2.57915V24.8001H1.70485ZM1.70485 12.6772V24.8001H2.57915V12.6772H1.70485ZM11.3241 6.90635L1.92449 12.298L2.35951 13.0564L11.7591 7.66475L11.3241 6.90635ZM22.2328 13.3985L11.7719 6.91399L11.3113 7.65711L21.7722 14.1416L22.2328 13.3985ZM22.4171 13.3552C22.3781 13.4181 22.2957 13.4374 22.2328 13.3985L21.7722 14.1416C22.2454 14.4349 22.8669 14.2891 23.1602 13.8159L22.4171 13.3552ZM22.3739 13.171C22.4367 13.2099 22.456 13.2924 22.4171 13.3552L23.1602 13.8159C23.4535 13.3427 23.3077 12.7212 22.8345 12.4279L22.3739 13.171ZM12.437 7.01138L22.3739 13.171L22.8345 12.4279L12.8976 6.26827L12.437 7.01138ZM20.1309 1.85474L12.4498 6.26063L12.8848 7.01902L20.5659 2.61313L20.1309 1.85474ZM20.2856 1.4572C20.328 1.43114 20.3816 1.43005 20.4255 1.45661L20.8785 0.708816C20.5436 0.505984 20.1384 0.52149 19.8279 0.712306L20.2856 1.4572ZM1.64223 12.1514L20.2743 1.46395L19.8392 0.705556L1.20721 11.393L1.64223 12.1514ZM1.4372 12.3242C1.4372 12.2628 1.479 12.21 1.53643 12.1948L1.313 11.3495C0.881522 11.4636 0.5629 11.8561 0.5629 12.3242H1.4372ZM1.4372 24.8001V12.3242H0.5629V24.8001H1.4372ZM1.4372 36.7427V24.8001H0.5629V36.7427H1.4372ZM1.57102 36.8765C1.49712 36.8765 1.4372 36.8166 1.4372 36.7427H0.5629C0.5629 37.2995 1.01425 37.7508 1.57102 37.7508V36.8765ZM1.70485 36.7427C1.70485 36.8166 1.64493 36.8765 1.57102 36.8765V37.7508C2.1278 37.7508 2.57915 37.2995 2.57915 36.7427H1.70485ZM1.70485 27.0308V36.7427H2.57915V27.0308H1.70485ZM20.3552 37.8788L2.37339 26.6599L1.9106 27.4016L19.8924 38.6206L20.3552 37.8788ZM20.6032 48.3916L20.5609 38.2479L19.6866 38.2515L19.7289 48.3952L20.6032 48.3916ZM20.7022 48.5204C20.6451 48.5052 20.6035 48.4528 20.6032 48.3916L19.7289 48.3952C19.7308 48.8612 20.0482 49.2509 20.477 49.3652L20.7022 48.5204ZM20.9068 48.5441C20.8671 48.5676 20.8201 48.5687 20.7799 48.5493L20.3993 49.3364C20.692 49.4779 21.0496 49.4755 21.352 49.2966L20.9068 48.5441ZM40.715 36.8246L20.9068 48.5441L21.352 49.2966L41.1602 37.577L40.715 36.8246ZM40.762 36.6413C40.7996 36.7049 40.7786 36.7869 40.715 36.8246L41.1602 37.577C41.6393 37.2935 41.798 36.6752 41.5145 36.1961L40.762 36.6413ZM40.5787 36.5942C40.6423 36.5566 40.7244 36.5776 40.762 36.6413L41.5145 36.1961C41.2309 35.7169 40.6127 35.5583 40.1335 35.8418L40.5787 36.5942ZM21.5268 47.8663L40.5787 36.5942L40.1335 35.8418L21.0816 47.1138L21.5268 47.8663ZM20.8293 38.425L20.8671 47.4919L21.7414 47.4883L21.7036 38.4213L20.8293 38.425ZM40.5999 26.2378L21.0405 38.0489L21.4924 38.7974L41.0519 26.9862L40.5999 26.2378ZM40.6453 26.0541C40.6835 26.1173 40.6632 26.1996 40.5999 26.2378L41.0519 26.9862C41.5285 26.6984 41.6816 26.0787 41.3937 25.6021L40.6453 26.0541ZM40.4616 26.0087C40.5248 25.9705 40.6071 25.9908 40.6453 26.054L41.3937 25.6021C41.1059 25.1255 40.4862 24.9724 40.0096 25.2602L40.4616 26.0087ZM21.4869 37.4667L40.4616 26.0087L40.0096 25.2602L21.0349 36.7183L21.4869 37.4667ZM20.7766 25.7797L20.8238 37.0943L21.6981 37.0907L21.6509 25.7761L20.7766 25.7797ZM40.219 13.7712L20.9875 25.4039L21.44 26.152L40.6715 14.5193L40.219 13.7712ZM40.2832 13.6453C40.2873 13.6955 40.2633 13.7443 40.219 13.7712L40.6715 14.5193C41.0103 14.3143 41.1846 13.9419 41.1546 13.5741L40.2832 13.6453ZM40.2191 13.447C40.2635 13.4739 40.2875 13.5229 40.2832 13.5731L41.1545 13.6463C41.1854 13.278 41.0113 12.9047 40.6721 12.6993L40.2191 13.447ZM20.4255 1.45661L40.2191 13.447L40.6721 12.6993L20.8785 0.708816L20.4255 1.45661Z" fill="black"/>
</svg>
