<svg width="86" height="75" viewBox="0 0 86 75" fill="none" xmlns="http://www.w3.org/2000/svg">
<path fill-rule="evenodd" clip-rule="evenodd" d="M42.1301 11.4114L63.6071 24.4215L42.1274 37.4142C41.9075 37.5472 41.7941 37.7894 41.8146 38.0293C41.8132 38.0475 41.8125 38.066 41.8125 38.0847L41.8666 51.0615L21.3999 38.2922C21.3695 38.2732 21.3381 38.257 21.3061 38.2436V37.2218V23.3561L32.0571 17.1893L44.0219 24.606C44.3284 24.796 44.731 24.7015 44.921 24.395C45.1111 24.0884 45.0166 23.6859 44.71 23.4958L33.3447 16.4507L42.1301 11.4114ZM41.7946 10.0981C41.9947 9.97414 42.2551 9.96319 42.4711 10.0909L42.4809 10.0967L65.1167 23.8089C65.3359 23.9417 65.4491 24.1828 65.4293 24.4219C65.4491 24.6612 65.3357 24.9024 65.1164 25.0351L43.1197 38.3404L43.1737 51.2816L64.8765 38.1762C65.1853 37.9897 65.5867 38.0889 65.7732 38.3976C65.9596 38.7064 65.8604 39.1078 65.5517 39.2942L43.18 52.8036L43.2232 63.1741L65.0143 50.2813C65.3247 50.0976 65.7252 50.2004 65.9089 50.5108C66.0925 50.8212 65.9898 51.2218 65.6794 51.4054L43.0234 64.8099C42.8278 64.9256 42.5965 64.9276 42.4062 64.8357C42.1281 64.7617 41.9226 64.5087 41.9214 64.2072L41.873 52.605L21.3061 39.7732V50.8814C21.3061 51.2421 21.0137 51.5345 20.6531 51.5345C20.2924 51.5345 20 51.2421 20 50.8814V37.2218V22.9523C20 22.6494 20.2063 22.3946 20.486 22.3208L41.7946 10.0981Z" fill="white"/>
<path d="M63.6071 24.4215L63.8659 24.8493L64.5727 24.4218L63.8662 23.9939L63.6071 24.4215ZM42.1301 11.4114L42.3892 10.9837L42.1371 10.831L41.8814 10.9777L42.1301 11.4114ZM42.1274 37.4142L42.3862 37.842L42.3862 37.842L42.1274 37.4142ZM41.8146 38.0293L42.313 38.0691L42.3163 38.0278L42.3128 37.9865L41.8146 38.0293ZM41.8125 38.0847L42.3125 38.0826L42.3125 38.0826L41.8125 38.0847ZM41.8666 51.0615L41.6019 51.4857L42.3704 51.9651L42.3666 51.0594L41.8666 51.0615ZM21.3999 38.2922L21.1352 38.7164L21.1352 38.7164L21.3999 38.2922ZM21.3061 38.2436H20.8061V38.5761L21.1127 38.7047L21.3061 38.2436ZM21.3061 23.3561L21.0573 22.9224L20.8061 23.0665V23.3561H21.3061ZM32.0571 17.1893L32.3205 16.7643L32.067 16.6072L31.8083 16.7556L32.0571 17.1893ZM44.0219 24.606L43.7585 25.031L43.7585 25.031L44.0219 24.606ZM44.71 23.4958L44.4466 23.9208L44.4466 23.9208L44.71 23.4958ZM33.3447 16.4507L33.0959 16.017L32.3688 16.4341L33.0813 16.8757L33.3447 16.4507ZM42.4711 10.0909L42.7287 9.66233L42.7255 9.66045L42.4711 10.0909ZM41.7946 10.0981L42.0434 10.5318L42.0507 10.5276L42.0578 10.5232L41.7946 10.0981ZM42.4809 10.0967L42.7399 9.66909L42.7384 9.6682L42.4809 10.0967ZM65.1167 23.8089L64.8577 24.2366L64.8577 24.2366L65.1167 23.8089ZM65.4293 24.4219L64.931 24.3806L64.9276 24.4219L64.931 24.4632L65.4293 24.4219ZM65.1164 25.0351L65.3751 25.4629L65.3751 25.4629L65.1164 25.0351ZM43.1197 38.3404L42.861 37.9126L42.6186 38.0592L42.6197 38.3425L43.1197 38.3404ZM43.1737 51.2816L42.6737 51.2837L42.6773 52.1654L43.4321 51.7096L43.1737 51.2816ZM64.8765 38.1762L65.135 38.6042L65.135 38.6042L64.8765 38.1762ZM65.7732 38.3976L65.3451 38.6561L65.3451 38.6561L65.7732 38.3976ZM65.5517 39.2942L65.2932 38.8662L65.2932 38.8662L65.5517 39.2942ZM43.18 52.8036L42.9215 52.3756L42.6788 52.5221L42.68 52.8057L43.18 52.8036ZM43.2232 63.1741L42.7232 63.1761L42.7269 64.0487L43.4778 63.6044L43.2232 63.1741ZM65.0143 50.2813L64.7597 49.851L64.7597 49.851L65.0143 50.2813ZM65.9089 50.5108L66.3392 50.2562L66.3392 50.2562L65.9089 50.5108ZM65.6794 51.4054L65.934 51.8357L65.934 51.8357L65.6794 51.4054ZM43.0234 64.8099L43.278 65.2402L43.278 65.2402L43.0234 64.8099ZM42.4062 64.8357L42.6237 64.3855L42.5807 64.3647L42.5347 64.3525L42.4062 64.8357ZM41.9214 64.2072L41.4214 64.2093L41.4214 64.2093L41.9214 64.2072ZM41.873 52.605L42.373 52.6029L42.3719 52.3269L42.1377 52.1808L41.873 52.605ZM21.3061 39.7732L21.5708 39.3489L20.8061 38.8719V39.7732H21.3061ZM20.486 22.3208L20.6136 22.8042L20.6775 22.7874L20.7348 22.7545L20.486 22.3208ZM63.8662 23.9939L42.3892 10.9837L41.8711 11.839L63.3481 24.8492L63.8662 23.9939ZM42.3862 37.842L63.8659 24.8493L63.3484 23.9937L41.8686 36.9863L42.3862 37.842ZM42.3128 37.9865C42.3079 37.929 42.3353 37.8728 42.3862 37.842L41.8686 36.9863C41.4796 37.2216 41.2802 37.6498 41.3165 38.072L42.3128 37.9865ZM42.3125 38.0826C42.3125 38.0779 42.3127 38.0734 42.313 38.0691L41.3162 37.9894C41.3136 38.0217 41.3124 38.0541 41.3126 38.0868L42.3125 38.0826ZM42.3666 51.0594L42.3125 38.0826L41.3126 38.0868L41.3666 51.0635L42.3666 51.0594ZM21.1352 38.7164L41.6019 51.4857L42.1313 50.6373L21.6646 37.868L21.1352 38.7164ZM21.1127 38.7047C21.1201 38.7078 21.1276 38.7116 21.1352 38.7164L21.6646 37.868C21.6113 37.8348 21.5562 37.8063 21.4995 37.7825L21.1127 38.7047ZM20.8061 37.2218V38.2436H21.8061V37.2218H20.8061ZM20.8061 23.3561V37.2218H21.8061V23.3561H20.8061ZM31.8083 16.7556L21.0573 22.9224L21.5549 23.7898L32.3059 17.623L31.8083 16.7556ZM44.2853 24.181L32.3205 16.7643L31.7937 17.6143L43.7585 25.031L44.2853 24.181ZM44.4961 24.1316C44.4515 24.2034 44.3572 24.2255 44.2853 24.181L43.7585 25.031C44.2997 25.3665 45.0105 25.1997 45.346 24.6584L44.4961 24.1316ZM44.4466 23.9208C44.5185 23.9654 44.5406 24.0597 44.4961 24.1316L45.346 24.6584C45.6815 24.1172 45.5147 23.4064 44.9735 23.0709L44.4466 23.9208ZM33.0813 16.8757L44.4466 23.9208L44.9735 23.0709L33.6081 16.0258L33.0813 16.8757ZM41.8814 10.9777L33.0959 16.017L33.5935 16.8844L42.3789 11.8451L41.8814 10.9777ZM42.7255 9.66045C42.3433 9.43454 41.8836 9.45488 41.5313 9.67302L42.0578 10.5232C42.1059 10.4934 42.1668 10.4918 42.2167 10.5213L42.7255 9.66045ZM42.7384 9.6682L42.7287 9.66234L42.2135 10.5194L42.2233 10.5253L42.7384 9.6682ZM65.3758 23.3812L42.7399 9.66909L42.2218 10.5244L64.8577 24.2366L65.3758 23.3812ZM65.9276 24.4631C65.9624 24.0423 65.7634 23.616 65.3758 23.3812L64.8577 24.2366C64.9084 24.2673 64.9357 24.3232 64.931 24.3806L65.9276 24.4631ZM65.3751 25.4629C65.7631 25.2283 65.9625 24.8017 65.9276 24.3806L64.931 24.4632C64.9358 24.5206 64.9084 24.5766 64.8576 24.6073L65.3751 25.4629ZM43.3785 38.7682L65.3751 25.4629L64.8576 24.6073L42.861 37.9126L43.3785 38.7682ZM43.6737 51.2795L43.6197 38.3383L42.6197 38.3425L42.6737 51.2837L43.6737 51.2795ZM64.6181 37.7481L42.9152 50.8536L43.4321 51.7096L65.135 38.6042L64.6181 37.7481ZM66.2012 38.1392C65.872 37.594 65.1632 37.4189 64.6181 37.7481L65.135 38.6042C65.2074 38.5605 65.3014 38.5837 65.3451 38.6561L66.2012 38.1392ZM65.8102 39.7223C66.3553 39.3931 66.5304 38.6843 66.2012 38.1391L65.3451 38.6561C65.3888 38.7284 65.3656 38.8225 65.2932 38.8662L65.8102 39.7223ZM43.4385 53.2316L65.8102 39.7222L65.2932 38.8662L42.9215 52.3756L43.4385 53.2316ZM43.7232 63.172L43.68 52.8015L42.68 52.8057L42.7232 63.1761L43.7232 63.172ZM64.7597 49.851L42.9686 62.7437L43.4778 63.6044L65.2689 50.7116L64.7597 49.851ZM66.3392 50.2562C66.0149 49.7081 65.3078 49.5267 64.7597 49.851L65.2689 50.7116C65.3417 50.6686 65.4355 50.6927 65.4786 50.7654L66.3392 50.2562ZM65.934 51.8357C66.4821 51.5115 66.6635 50.8043 66.3392 50.2562L65.4786 50.7654C65.5216 50.8382 65.4975 50.932 65.4248 50.9751L65.934 51.8357ZM43.278 65.2402L65.934 51.8357L65.4248 50.9751L42.7688 64.3796L43.278 65.2402ZM42.1886 65.2859C42.5233 65.4476 42.9323 65.4448 43.278 65.2402L42.7688 64.3796C42.7234 64.4064 42.6697 64.4077 42.6237 64.3855L42.1886 65.2859ZM41.4214 64.2093C41.4236 64.7424 41.7868 65.1883 42.2776 65.3189L42.5347 64.3525C42.4693 64.3351 42.4217 64.2751 42.4214 64.2051L41.4214 64.2093ZM41.3731 52.607L41.4214 64.2093L42.4214 64.2051L42.373 52.6029L41.3731 52.607ZM21.0415 40.1974L41.6084 53.0292L42.1377 52.1808L21.5708 39.3489L21.0415 40.1974ZM21.8061 50.8814V39.7732H20.8061V50.8814H21.8061ZM20.6531 52.0345C21.2899 52.0345 21.8061 51.5183 21.8061 50.8814H20.8061C20.8061 50.966 20.7376 51.0345 20.6531 51.0345V52.0345ZM19.5 50.8814C19.5 51.5183 20.0162 52.0345 20.6531 52.0345V51.0345C20.5685 51.0345 20.5 50.966 20.5 50.8814H19.5ZM19.5 37.2218V50.8814H20.5V37.2218H19.5ZM19.5 22.9523V37.2218H20.5V22.9523H19.5ZM20.3584 21.8373C19.8647 21.9676 19.5 22.4167 19.5 22.9523H20.5C20.5 22.882 20.5478 22.8216 20.6136 22.8042L20.3584 21.8373ZM41.5458 9.66439L20.2372 21.8871L20.7348 22.7545L42.0434 10.5318L41.5458 9.66439Z" fill="white"/>
</svg>
