<svg width="240" height="284" viewBox="0 0 240 284" fill="none" xmlns="http://www.w3.org/2000/svg">
<path fill-rule="evenodd" clip-rule="evenodd" d="M6.17241 65.1222C4.33573 65.6842 3 67.3929 3 69.4136V141.259V210.034C3 212.512 5.00895 214.521 7.48711 214.521C9.96527 214.521 11.9742 212.512 11.9742 210.034V141.259V121.216L113.01 190.906L113.37 277.132C113.378 279.164 114.736 280.875 116.59 281.419C117.878 282.001 119.419 281.968 120.727 281.194L234.797 213.704C236.93 212.442 237.636 209.69 236.374 207.557C235.112 205.424 232.361 204.718 230.228 205.98L122.313 269.828L122.107 220.387L234.166 152.72C236.288 151.439 236.969 148.68 235.688 146.559C234.407 144.438 231.649 143.756 229.527 145.037L122.064 209.93L121.804 147.567L231.976 80.9269C233.456 80.0312 234.234 78.4155 234.132 76.8001C234.224 75.1944 233.448 73.5924 231.977 72.7011L118.146 3.74552C116.928 2.94066 115.355 2.7586 113.952 3.34122C113.738 3.42958 113.53 3.53471 113.33 3.65607L6.17241 65.1222ZM115.603 12.6979L221.441 76.8111L114.988 141.202C113.513 142.094 112.736 143.7 112.83 145.309C112.824 145.408 112.821 145.508 112.822 145.608L112.965 179.972L13.4778 111.351C13.0079 111.027 12.498 110.805 11.9742 110.68V72.14L47.653 51.6745L113.817 92.7234C115.923 94.0299 118.689 93.3819 119.995 91.2761C121.302 89.1703 120.654 86.4041 118.548 85.0976L56.498 46.601L115.603 12.6979Z" fill="black"/>
<path d="M6.17241 65.1222L6.77669 67.0971L6.99867 67.0292L7.20002 66.9137L6.17241 65.1222ZM11.9742 121.216L13.1469 119.516L9.9089 117.282V121.216H11.9742ZM113.01 190.906L115.076 190.897L115.071 189.818L114.183 189.206L113.01 190.906ZM113.37 277.132L115.435 277.123L115.435 277.123L113.37 277.132ZM116.59 281.419L117.441 279.537L117.31 279.478L117.172 279.438L116.59 281.419ZM120.727 281.194L119.676 279.416L119.675 279.416L120.727 281.194ZM234.797 213.704L233.746 211.926L233.746 211.926L234.797 213.704ZM236.374 207.557L238.152 206.505L238.152 206.505L236.374 207.557ZM230.228 205.98L229.176 204.203L229.176 204.203L230.228 205.98ZM122.313 269.828L120.248 269.836L120.263 273.441L123.365 271.605L122.313 269.828ZM122.107 220.387L121.04 218.619L120.037 219.225L120.042 220.396L122.107 220.387ZM234.166 152.72L233.099 150.952L233.099 150.952L234.166 152.72ZM229.527 145.037L228.46 143.269L228.46 143.269L229.527 145.037ZM122.064 209.93L119.999 209.939L120.014 213.581L123.131 211.698L122.064 209.93ZM121.804 147.567L120.735 145.8L119.734 146.406L119.739 147.576L121.804 147.567ZM231.976 80.9269L230.907 79.1597L230.907 79.1597L231.976 80.9269ZM234.132 76.8001L232.07 76.6816L232.063 76.8061L232.071 76.9306L234.132 76.8001ZM231.977 72.7011L230.906 74.4676L230.906 74.4676L231.977 72.7011ZM118.146 3.74552L117.007 5.46856L117.041 5.49095L117.075 5.512L118.146 3.74552ZM113.952 3.34122L114.739 5.25085L114.744 5.24862L113.952 3.34122ZM113.33 3.65607L114.358 5.44758L114.381 5.43448L114.403 5.42081L113.33 3.65607ZM221.441 76.8111L222.51 78.5782L225.429 76.8124L222.511 75.0446L221.441 76.8111ZM115.603 12.6979L116.673 10.9314L115.632 10.3005L114.576 10.9064L115.603 12.6979ZM114.988 141.202L113.919 139.435L113.919 139.435L114.988 141.202ZM112.83 145.309L114.892 145.436L114.899 145.312L114.892 145.187L112.83 145.309ZM112.822 145.608L114.887 145.6L114.887 145.6L112.822 145.608ZM112.965 179.972L111.792 181.672L115.047 183.917L115.03 179.964L112.965 179.972ZM13.4778 111.351L14.6504 109.651L14.6504 109.651L13.4778 111.351ZM11.9742 110.68H9.9089V112.31L11.4942 112.688L11.9742 110.68ZM11.9742 72.14L10.9466 70.3485L9.9089 70.9437V72.14H11.9742ZM47.653 51.6745L48.7418 49.9195L47.6945 49.2698L46.6254 49.883L47.653 51.6745ZM113.817 92.7234L112.728 94.4784L112.728 94.4784L113.817 92.7234ZM119.995 91.2761L121.75 92.3649L121.75 92.3649L119.995 91.2761ZM118.548 85.0976L119.637 83.3426L119.637 83.3426L118.548 85.0976ZM56.498 46.601L55.4704 44.8095L52.4683 46.5315L55.4092 48.356L56.498 46.601ZM5.06531 69.4136C5.06531 68.3261 5.78372 67.4009 6.77669 67.0971L5.56812 63.1473C2.88773 63.9674 0.934689 66.4597 0.934689 69.4136H5.06531ZM5.06531 141.259V69.4136H0.934689V141.259H5.06531ZM5.06531 210.034V141.259H0.934689V210.034H5.06531ZM7.48711 212.455C6.14958 212.455 5.06531 211.371 5.06531 210.034H0.934689C0.934689 213.652 3.86831 216.586 7.48711 216.586V212.455ZM9.9089 210.034C9.9089 211.371 8.82463 212.455 7.48711 212.455V216.586C11.1059 216.586 14.0395 213.652 14.0395 210.034H9.9089ZM9.9089 141.259V210.034H14.0395V141.259H9.9089ZM9.9089 121.216V141.259H14.0395V121.216H9.9089ZM114.183 189.206L13.1469 119.516L10.8016 122.916L111.838 192.606L114.183 189.206ZM115.435 277.123L115.076 190.897L110.945 190.914L111.304 277.141L115.435 277.123ZM117.172 279.438C116.17 279.143 115.439 278.217 115.435 277.123L111.304 277.141C111.317 280.111 113.301 282.606 116.008 283.401L117.172 279.438ZM119.675 279.416C118.971 279.833 118.141 279.854 117.441 279.537L115.739 283.301C117.614 284.149 119.867 284.102 121.779 282.971L119.675 279.416ZM233.746 211.926L119.676 279.416L121.779 282.971L235.849 215.481L233.746 211.926ZM234.597 208.609C235.278 209.76 234.897 211.245 233.746 211.926L235.849 215.481C238.964 213.638 239.995 209.62 238.152 206.505L234.597 208.609ZM231.279 207.758C232.431 207.076 233.916 207.458 234.597 208.609L238.152 206.505C236.309 203.391 232.291 202.36 229.176 204.203L231.279 207.758ZM123.365 271.605L231.279 207.758L229.176 204.203L121.262 268.05L123.365 271.605ZM120.042 220.396L120.248 269.836L124.379 269.819L124.173 220.379L120.042 220.396ZM233.099 150.952L121.04 218.619L123.175 222.155L235.234 154.488L233.099 150.952ZM233.92 147.627C234.611 148.772 234.244 150.26 233.099 150.952L235.234 154.488C238.332 152.617 239.326 148.589 237.456 145.491L233.92 147.627ZM230.595 146.805C231.74 146.114 233.228 146.482 233.92 147.627L237.456 145.491C235.585 142.394 231.557 141.399 228.46 143.269L230.595 146.805ZM123.131 211.698L230.595 146.805L228.46 143.269L120.996 208.162L123.131 211.698ZM119.739 147.576L119.999 209.939L124.129 209.921L123.869 147.559L119.739 147.576ZM230.907 79.1597L120.735 145.8L122.873 149.335L233.045 82.6941L230.907 79.1597ZM232.071 76.9306C232.127 77.8083 231.703 78.6778 230.907 79.1597L233.045 82.6941C235.21 81.3845 236.342 79.0226 236.193 76.6695L232.071 76.9306ZM230.906 74.4676C231.698 74.9471 232.12 75.8092 232.07 76.6816L236.194 76.9185C236.328 74.5797 235.198 72.2376 233.047 70.9346L230.906 74.4676ZM117.075 5.512L230.906 74.4676L233.047 70.9346L119.216 1.97904L117.075 5.512ZM114.744 5.24862C115.496 4.93667 116.346 5.03168 117.007 5.46856L119.284 2.02248C117.51 0.849646 115.215 0.580528 113.16 1.43383L114.744 5.24862ZM114.403 5.42081C114.511 5.35546 114.623 5.29867 114.739 5.25085L113.166 1.4316C112.853 1.56049 112.549 1.71396 112.257 1.89134L114.403 5.42081ZM7.20002 66.9137L114.358 5.44758L112.303 1.86456L5.14479 63.3307L7.20002 66.9137ZM222.511 75.0446L116.673 10.9314L114.533 14.4644L220.371 78.5776L222.511 75.0446ZM116.057 142.969L222.51 78.5782L220.372 75.0439L113.919 139.435L116.057 142.969ZM114.892 145.187C114.841 144.313 115.263 143.449 116.057 142.969L113.919 139.435C111.763 140.739 110.631 143.087 110.768 145.43L114.892 145.187ZM114.887 145.6C114.887 145.544 114.888 145.49 114.892 145.436L110.769 145.181C110.76 145.326 110.756 145.471 110.756 145.617L114.887 145.6ZM115.03 179.964L114.887 145.6L110.756 145.617L110.899 179.981L115.03 179.964ZM12.3051 113.051L111.792 181.672L114.137 178.272L14.6504 109.651L12.3051 113.051ZM11.4942 112.688C11.774 112.755 12.0484 112.874 12.3051 113.051L14.6504 109.651C13.9674 109.18 13.222 108.854 12.4542 108.671L11.4942 112.688ZM9.9089 72.14V110.68H14.0395V72.14H9.9089ZM46.6254 49.883L10.9466 70.3485L13.0018 73.9315L48.6806 53.466L46.6254 49.883ZM114.906 90.9684L48.7418 49.9195L46.5642 53.4295L112.728 94.4784L114.906 90.9684ZM118.24 90.1873C117.535 91.3238 116.042 91.6736 114.906 90.9684L112.728 94.4784C115.803 96.3862 119.842 95.44 121.75 92.3649L118.24 90.1873ZM117.459 86.8526C118.596 87.5577 118.945 89.0507 118.24 90.1873L121.75 92.3649C123.658 89.2898 122.712 85.2504 119.637 83.3426L117.459 86.8526ZM55.4092 48.356L117.459 86.8526L119.637 83.3426L57.5868 44.846L55.4092 48.356ZM114.576 10.9064L55.4704 44.8095L57.5256 48.3925L116.631 14.4894L114.576 10.9064Z" fill="black"/>
</svg>
