<svg width="202" height="201" viewBox="0 0 202 201" fill="none" xmlns="http://www.w3.org/2000/svg">
<rect x="0.0722656" width="201" height="201" rx="100.5" fill="black"/>
<path fill-rule="evenodd" clip-rule="evenodd" d="M98.5454 28.5811L159.152 65.2951L99.2264 101.543C99.0584 101.645 98.9934 101.852 99.0648 102.028C99.0464 102.074 99.0363 102.124 99.0365 102.176L99.1928 139.69L41.8343 103.904C41.6496 103.789 41.4065 103.845 41.2912 104.03C41.176 104.215 41.2323 104.458 41.417 104.573L99.1967 140.622L99.3304 172.701C99.3313 172.919 99.5085 173.094 99.7262 173.093C99.7367 173.093 99.747 173.093 99.7573 173.092C99.8813 173.219 100.08 173.25 100.24 173.155L161.405 136.967C161.593 136.856 161.655 136.614 161.544 136.427C161.433 136.239 161.191 136.177 161.004 136.288L100.117 172.312L99.987 141.063C100.079 141.071 100.172 141.045 100.248 140.991L161.051 104.275C161.237 104.163 161.297 103.92 161.184 103.734C161.072 103.548 160.829 103.488 160.643 103.6L100.021 140.207L99.9833 140.184L99.8249 102.173C99.8248 102.15 99.8228 102.128 99.8189 102.106L159.874 65.7801C160.042 65.6786 160.107 65.4722 160.036 65.2961C160.108 65.1199 160.043 64.9127 159.875 64.811L98.7538 27.7856C98.6164 27.7024 98.4485 27.713 98.3245 27.799L40.5591 60.9334C40.5533 60.9332 40.5475 60.9331 40.5417 60.9331C40.3239 60.9331 40.1475 61.1096 40.1475 61.3273V99.8516V136.729C40.1475 136.947 40.3239 137.123 40.5417 137.123C40.7594 137.123 40.9358 136.947 40.9358 136.729V99.8516V61.6262L71.4385 44.1298C71.4681 44.2084 71.5229 44.2783 71.5998 44.326L104.354 64.6293C104.539 64.744 104.782 64.687 104.896 64.502C105.011 64.3169 104.954 64.0739 104.769 63.9592L72.1351 43.7302L98.5454 28.5811Z" fill="white"/>
<path d="M159.152 65.2951L160.402 67.361L163.815 65.2967L160.403 63.2301L159.152 65.2951ZM98.5454 28.5811L99.7964 26.5161L98.5789 25.7785L97.3441 26.4868L98.5454 28.5811ZM99.2264 101.543L97.9767 99.4773L97.9767 99.4773L99.2264 101.543ZM99.0648 102.028L101.305 102.928L101.668 102.024L101.303 101.121L99.0648 102.028ZM99.0365 102.176L96.6221 102.186L96.6221 102.187L99.0365 102.176ZM99.1928 139.69L97.9148 141.739L101.625 144.054L101.607 139.68L99.1928 139.69ZM41.8343 103.904L40.5563 105.952L40.5563 105.953L41.8343 103.904ZM41.2912 104.03L43.3396 105.308L43.3397 105.308L41.2912 104.03ZM41.417 104.573L42.695 102.525L42.695 102.525L41.417 104.573ZM99.1967 140.622L101.611 140.612L101.606 139.279L100.475 138.574L99.1967 140.622ZM99.3304 172.701L96.916 172.711L96.916 172.711L99.3304 172.701ZM99.7262 173.093L99.7364 175.508L99.7368 175.508L99.7262 173.093ZM99.7573 173.092L101.483 171.404L100.69 170.593L99.5603 170.686L99.7573 173.092ZM100.24 173.155L99.0102 171.078L99.0101 171.078L100.24 173.155ZM161.405 136.967L162.635 139.045L162.635 139.044L161.405 136.967ZM161.004 136.288L159.775 134.21L159.774 134.21L161.004 136.288ZM100.117 172.312L97.7028 172.322L97.7203 176.535L101.347 174.39L100.117 172.312ZM99.987 141.063L100.181 138.657L97.5616 138.446L97.5726 141.073L99.987 141.063ZM100.248 140.991L99 138.925L98.9212 138.972L98.8463 139.026L100.248 140.991ZM161.051 104.275L162.299 106.342L162.299 106.342L161.051 104.275ZM161.184 103.734L159.117 104.982L159.117 104.982L161.184 103.734ZM160.643 103.6L159.395 101.533L159.395 101.534L160.643 103.6ZM100.021 140.207L98.7434 142.256L100.001 143.04L101.269 142.274L100.021 140.207ZM99.9833 140.184L97.5689 140.194L97.5744 141.527L98.7053 142.232L99.9833 140.184ZM99.8249 102.173L102.239 102.163L102.239 102.163L99.8249 102.173ZM99.8189 102.106L98.5693 100.04L97.1546 100.896L97.441 102.524L99.8189 102.106ZM159.874 65.7801L158.624 63.7142L158.624 63.7142L159.874 65.7801ZM160.036 65.2961L157.799 64.3869L157.432 65.2911L157.796 66.1968L160.036 65.2961ZM159.875 64.811L161.126 62.7459L161.126 62.7459L159.875 64.811ZM98.7538 27.7856L97.5028 29.8507L97.5028 29.8507L98.7538 27.7856ZM98.3245 27.799L99.5259 29.8933L99.6159 29.8417L99.7012 29.7825L98.3245 27.799ZM40.5591 60.9334L40.4544 63.3456L41.1535 63.3759L41.7605 63.0278L40.5591 60.9334ZM40.9358 61.6262L39.7345 59.5319L38.5214 60.2277V61.6262H40.9358ZM71.4385 44.1298L73.6989 43.2813L72.7008 40.6223L70.2372 42.0354L71.4385 44.1298ZM71.5998 44.326L72.8719 42.2739L72.8719 42.2739L71.5998 44.326ZM104.354 64.6293L105.626 62.5772L105.626 62.5772L104.354 64.6293ZM104.769 63.9592L103.497 66.0114L103.497 66.0114L104.769 63.9592ZM72.1351 43.7302L70.9337 41.6359L67.4227 43.6498L70.863 45.7824L72.1351 43.7302ZM160.403 63.2301L99.7964 26.5161L97.2945 30.6462L157.901 67.3602L160.403 63.2301ZM100.476 103.609L160.402 67.361L157.903 63.2292L97.9767 99.4773L100.476 103.609ZM101.303 101.121C101.669 102.027 101.339 103.087 100.476 103.609L97.9767 99.4773C96.7782 100.202 96.3174 101.677 96.827 102.935L101.303 101.121ZM101.451 102.166C101.452 102.431 101.401 102.689 101.305 102.928L96.8244 101.128C96.6917 101.458 96.6206 101.817 96.6221 102.186L101.451 102.166ZM101.607 139.68L101.451 102.166L96.6221 102.187L96.7784 139.7L101.607 139.68ZM40.5563 105.953L97.9148 141.739L100.471 137.642L43.1123 101.856L40.5563 105.953ZM43.3397 105.308C42.7491 106.255 41.5029 106.543 40.5563 105.952L43.1124 101.856C41.7963 101.035 40.0639 101.436 39.2428 102.752L43.3397 105.308ZM42.695 102.525C43.6416 103.115 43.9303 104.361 43.3396 105.308L39.2428 102.752C38.4217 104.068 38.823 105.8 40.139 106.621L42.695 102.525ZM100.475 138.574L42.695 102.525L40.139 106.621L97.9187 142.67L100.475 138.574ZM101.745 172.691L101.611 140.612L96.7823 140.632L96.916 172.711L101.745 172.691ZM99.7161 170.679C100.832 170.674 101.74 171.575 101.745 172.691L96.916 172.711C96.9225 174.262 98.1851 175.514 99.7364 175.508L99.7161 170.679ZM99.5603 170.686C99.6108 170.682 99.6626 170.679 99.7157 170.679L99.7368 175.508C99.8107 175.508 99.8833 175.504 99.9542 175.499L99.5603 170.686ZM99.0101 171.078C99.8303 170.592 100.848 170.754 101.483 171.404L98.0314 174.781C98.9149 175.684 100.33 175.907 101.469 175.233L99.0101 171.078ZM160.176 134.889L99.0102 171.078L101.469 175.233L162.635 139.045L160.176 134.889ZM159.466 137.656C158.898 136.696 159.216 135.457 160.176 134.889L162.635 139.044C163.97 138.255 164.412 136.532 163.622 135.197L159.466 137.656ZM162.233 138.366C161.273 138.934 160.034 138.616 159.466 137.656L163.622 135.197C162.832 133.862 161.109 133.42 159.775 134.21L162.233 138.366ZM101.347 174.39L162.233 138.366L159.774 134.21L98.8877 170.234L101.347 174.39ZM97.5726 141.073L97.7028 172.322L102.532 172.302L102.401 141.053L97.5726 141.073ZM98.8463 139.026C99.2366 138.747 99.7096 138.619 100.181 138.657L99.7928 143.47C100.449 143.523 101.108 143.344 101.65 142.957L98.8463 139.026ZM159.802 102.208L99 138.925L101.496 143.058L162.299 106.342L159.802 102.208ZM159.117 104.982C158.541 104.027 158.847 102.785 159.802 102.208L162.299 106.342C163.626 105.54 164.053 103.814 163.251 102.486L159.117 104.982ZM161.891 105.667C160.936 106.244 159.694 105.937 159.117 104.982L163.251 102.486C162.449 101.158 160.723 100.732 159.395 101.533L161.891 105.667ZM101.269 142.274L161.891 105.667L159.395 101.534L98.7733 138.14L101.269 142.274ZM98.7053 142.232L98.7434 142.256L101.299 138.159L101.261 138.135L98.7053 142.232ZM97.4105 102.183L97.5689 140.194L102.398 140.173L102.239 102.163L97.4105 102.183ZM97.441 102.524C97.4212 102.412 97.411 102.298 97.4105 102.183L102.239 102.163C102.239 102.003 102.224 101.844 102.197 101.688L97.441 102.524ZM158.624 63.7142L98.5693 100.04L101.069 104.172L161.124 67.8459L158.624 63.7142ZM157.796 66.1968C157.432 65.2926 157.763 64.2351 158.624 63.7142L161.124 67.8459C162.32 67.1222 162.781 65.6518 162.276 64.3955L157.796 66.1968ZM158.624 66.876C157.761 66.3534 157.431 65.2922 157.799 64.3869L162.273 66.2054C162.784 64.9476 162.324 63.472 161.126 62.7459L158.624 66.876ZM97.5028 29.8507L158.624 66.876L161.126 62.7459L100.005 25.7205L97.5028 29.8507ZM99.7012 29.7825C99.0707 30.2201 98.21 30.2791 97.5028 29.8507L100.005 25.7206C99.0229 25.1257 97.8263 25.2059 96.9479 25.8155L99.7012 29.7825ZM41.7605 63.0278L99.5259 29.8933L97.1232 25.7046L39.3578 58.8391L41.7605 63.0278ZM40.5417 63.3475C40.5119 63.3475 40.4828 63.3468 40.4544 63.3456L40.6639 58.5213C40.6239 58.5196 40.5831 58.5187 40.5417 58.5187V63.3475ZM42.5619 61.3273C42.5619 62.443 41.6574 63.3475 40.5417 63.3475V58.5187C38.9905 58.5187 37.733 59.7761 37.733 61.3273H42.5619ZM42.5619 99.8516V61.3273H37.733V99.8516H42.5619ZM42.5619 136.729V99.8516H37.733V136.729H42.5619ZM40.5417 134.709C41.6574 134.709 42.5619 135.614 42.5619 136.729H37.733C37.733 138.28 38.9905 139.538 40.5417 139.538V134.709ZM38.5214 136.729C38.5214 135.614 39.4259 134.709 40.5417 134.709V139.538C42.0928 139.538 43.3503 138.28 43.3503 136.729H38.5214ZM38.5214 99.8516V136.729H43.3503V99.8516H38.5214ZM38.5214 61.6262V99.8516H43.3503V61.6262H38.5214ZM70.2372 42.0354L39.7345 59.5319L42.1372 63.7206L72.6399 46.2241L70.2372 42.0354ZM72.8719 42.2739C73.264 42.5169 73.5476 42.8781 73.6989 43.2813L69.1781 44.9783C69.3885 45.5387 69.7818 46.0397 70.3278 46.3782L72.8719 42.2739ZM105.626 62.5772L72.8719 42.2739L70.3277 46.3781L103.082 66.6814L105.626 62.5772ZM102.844 63.2299C103.432 62.2816 104.677 61.9893 105.626 62.5772L103.082 66.6814C104.4 67.4987 106.131 67.0924 106.948 65.774L102.844 63.2299ZM103.497 66.0114C102.549 65.4235 102.256 64.1782 102.844 63.2299L106.948 65.774C107.766 64.4557 107.359 62.7243 106.041 61.9071L103.497 66.0114ZM70.863 45.7824L103.497 66.0114L106.041 61.9071L73.4071 41.6781L70.863 45.7824ZM97.3441 26.4868L70.9337 41.6359L73.3364 45.8246L99.7467 30.6755L97.3441 26.4868Z" fill="white"/>
</svg>
