<svg width="1729" height="406" viewBox="0 0 1729 406" fill="none" xmlns="http://www.w3.org/2000/svg">
<path d="M506.085 145.123L506.096 145.11L506.108 145.097C513.771 136.413 523.264 132.113 534.742 132.113H649.899C656.198 132.113 661.304 127.006 661.304 120.707C661.304 114.408 656.198 109.302 649.899 109.302H534.742C516.38 109.302 500.947 115.306 488.611 127.362L488.602 127.371L488.593 127.38C476.519 139.453 470.514 154.763 470.514 173.125L470.514 173.132L470.888 287.091C470.909 293.607 476.198 298.878 482.714 298.878C489.245 298.878 494.54 293.583 494.54 287.052V238.977L648.657 239.354C654.967 239.37 660.09 234.259 660.09 227.949C660.09 221.661 655.001 216.559 648.712 216.543L494.54 216.167V175.149C494.54 163.572 498.378 153.6 506.085 145.123ZM996.704 145.123L996.715 145.11L996.727 145.097C1004.39 136.413 1013.88 132.113 1025.36 132.113H1140.52C1146.82 132.113 1151.92 127.006 1151.92 120.707C1151.92 114.408 1146.82 109.302 1140.52 109.302H1025.36C1006.74 109.302 991.292 115.3 979.211 127.38C967.138 139.453 961.133 154.763 961.133 173.125V235.055C961.133 253.417 967.138 268.726 979.211 280.799C991.292 292.88 1006.74 298.878 1025.36 298.878H1140.52C1146.82 298.878 1151.92 293.771 1151.92 287.472C1151.92 281.173 1146.82 276.067 1140.52 276.067H1025.36C1013.87 276.067 1004.37 271.887 996.716 263.475C988.995 254.719 985.159 244.604 985.159 233.031V218.739L1139.28 219.116C1145.59 219.131 1150.71 214.02 1150.71 207.71C1150.71 201.422 1145.62 196.32 1139.33 196.305L985.159 195.928V175.149C985.159 163.572 988.997 153.6 996.704 145.123ZM1202.89 129.754L1202.88 129.762L1202.87 129.771C1190.51 141.571 1184.35 156.624 1184.35 174.744V286.663C1184.35 293.185 1189.64 298.473 1196.16 298.473C1202.68 298.473 1207.97 293.185 1207.97 286.663V174.744C1207.97 163.504 1212.03 154.127 1220.2 146.468C1228.41 138.773 1238.1 134.946 1249.39 134.946H1339.65C1350.94 134.946 1360.63 138.773 1368.84 146.468C1377.01 154.127 1381.07 163.504 1381.07 174.744V286.663C1381.07 293.185 1386.36 298.473 1392.88 298.473C1399.4 298.473 1404.69 293.185 1404.69 286.663V177.577C1404.69 159.187 1398.4 143.621 1385.81 131.031C1373.48 118.429 1358.04 112.135 1339.65 112.135H1249.39C1231.04 112.135 1215.49 117.993 1202.89 129.754ZM901.349 120.707V167.184H728.252V120.707C728.252 114.185 722.964 108.897 716.441 108.897C709.919 108.897 704.631 114.185 704.631 120.707V286.663C704.631 293.185 709.919 298.473 716.441 298.473C722.964 298.473 728.252 293.185 728.252 286.663V189.995H901.349V286.663C901.349 293.185 906.637 298.473 913.159 298.473C919.682 298.473 924.969 293.185 924.969 286.663V120.707C924.969 114.185 919.682 108.897 913.159 108.897C906.637 108.897 901.349 114.185 901.349 120.707ZM1448.73 122.326V285.044C1448.73 292.46 1454.75 298.473 1462.16 298.473C1469.58 298.473 1475.59 292.46 1475.59 285.044V122.326C1475.59 114.91 1469.58 108.897 1462.16 108.897C1454.75 108.897 1448.73 114.91 1448.73 122.326ZM1713.62 298.473H1714.12C1720.64 298.473 1725.98 293.283 1726.17 286.762C1726.27 283.101 1724.7 279.59 1721.91 277.222L1637.29 205.502L1721.93 133.385C1724.71 131.014 1726.27 127.51 1726.17 123.856C1725.98 117.33 1720.63 112.135 1714.11 112.135H1713.62C1710.63 112.135 1707.74 113.201 1705.46 115.142L1618.76 189.128L1532.06 115.142C1529.79 113.201 1526.89 112.135 1523.9 112.135H1523.42C1516.89 112.135 1511.55 117.33 1511.36 123.856C1511.25 127.51 1512.81 131.014 1515.59 133.385L1600.24 205.502L1515.62 277.222C1512.82 279.59 1511.25 283.101 1511.36 286.762C1511.55 293.283 1516.89 298.473 1523.41 298.473H1523.9C1526.89 298.473 1529.79 297.407 1532.06 295.466L1618.76 221.48L1705.46 295.466C1707.74 297.407 1710.63 298.473 1713.62 298.473Z" fill="white" stroke="white" stroke-width="4.59631"/>
<path fill-rule="evenodd" clip-rule="evenodd" d="M164.926 20.0898L314.297 110.575L164.056 201.453C161.981 202.708 160.884 204.963 161.009 207.226C161 207.375 160.995 207.526 160.995 207.677L161.198 256.177L20.7812 159.324C20.1201 158.868 19.4028 158.555 18.666 158.378V103.985L69.0268 75.0978L162.405 133.031C165.377 134.875 169.282 133.961 171.126 130.988C172.969 128.016 172.055 124.112 169.083 122.268L81.5104 67.9371L164.926 20.0898ZM161.637 7.3743C163.292 6.33539 165.378 6.09728 167.261 6.81563C167.682 6.97532 168.088 7.18017 168.47 7.42802L329.17 104.775C331.241 106.03 332.336 108.283 332.213 110.543C332.363 112.827 331.265 115.115 329.17 116.381L173.673 210.438L174.04 298.462L325.719 206.869C328.713 205.061 332.606 206.022 334.414 209.016C336.222 212.01 335.261 215.903 332.267 217.711L174.101 313.221L174.392 382.993L326.698 292.881C329.708 291.1 333.592 292.097 335.373 295.107C337.154 298.117 336.158 302.001 333.148 303.782L172.151 399.036C170.31 400.126 168.142 400.176 166.328 399.362C163.703 398.597 161.781 396.18 161.769 393.307L161.262 271.608L18.666 173.252V201.532V298.599C18.666 302.097 15.8306 304.932 12.333 304.932C8.83539 304.932 6 302.097 6 298.599V201.532V100.131C6 97.2711 7.89579 94.8539 10.4993 94.0676L161.637 7.3743Z" fill="white"/>
<path d="M314.297 110.575L317.099 115.207L324.751 110.578L317.102 105.945L314.297 110.575ZM164.926 20.0898L167.731 15.4595L165.001 13.8059L162.232 15.3939L164.926 20.0898ZM164.056 201.453L161.254 196.821L161.254 196.821L164.056 201.453ZM161.009 207.226L166.411 207.583L166.433 207.256L166.415 206.928L161.009 207.226ZM160.995 207.677L155.582 207.699L155.582 207.7L160.995 207.677ZM161.198 256.177L158.124 260.633L166.654 266.517L166.611 256.154L161.198 256.177ZM20.7812 159.324L23.855 154.868L23.855 154.868L20.7812 159.324ZM18.666 158.378H13.2525V162.646L17.4019 163.642L18.666 158.378ZM18.666 103.985L15.9725 99.289L13.2525 100.849V103.985H18.666ZM69.0268 75.0978L71.8808 70.4977L69.1355 68.7945L66.3332 70.4019L69.0268 75.0978ZM162.405 133.031L159.551 137.631L159.551 137.631L162.405 133.031ZM171.126 130.988L166.525 128.134L166.525 128.134L171.126 130.988ZM169.083 122.268L166.229 126.868L166.229 126.868L169.083 122.268ZM81.5104 67.9371L78.8168 63.2413L70.948 67.7549L78.6564 72.5373L81.5104 67.9371ZM167.261 6.81563L165.331 11.8736L165.338 11.8761L165.344 11.8787L167.261 6.81563ZM161.637 7.3743L164.331 12.0702L164.424 12.0165L164.516 11.9591L161.637 7.3743ZM168.47 7.42802L165.521 11.968L165.592 12.0143L165.665 12.0583L168.47 7.42802ZM329.17 104.775L326.365 109.406L326.365 109.406L329.17 104.775ZM332.213 110.543L326.807 110.248L326.79 110.573L326.811 110.897L332.213 110.543ZM329.17 116.381L331.972 121.014L331.972 121.014L329.17 116.381ZM173.673 210.438L170.871 205.806L168.247 207.394L168.26 210.461L173.673 210.438ZM174.04 298.462L168.626 298.484L168.666 308.031L176.838 303.096L174.04 298.462ZM325.719 206.869L322.921 202.235L322.921 202.235L325.719 206.869ZM332.267 217.711L329.468 213.077L329.468 213.077L332.267 217.711ZM174.101 313.221L171.303 308.587L168.675 310.174L168.688 313.243L174.101 313.221ZM174.392 382.993L168.979 383.016L169.018 392.463L177.149 387.653L174.392 382.993ZM326.698 292.881L329.455 297.54L329.455 297.54L326.698 292.881ZM333.148 303.782L330.391 299.123L330.391 299.123L333.148 303.782ZM172.151 399.036L169.394 394.377L169.394 394.377L172.151 399.036ZM166.328 399.362L168.545 394.423L168.202 394.269L167.842 394.164L166.328 399.362ZM161.769 393.307L167.182 393.284L167.182 393.284L161.769 393.307ZM161.262 271.608L166.675 271.585L166.664 268.757L164.336 267.151L161.262 271.608ZM18.666 173.252L21.7398 168.796L13.2525 162.942V173.252H18.666ZM10.4993 94.0676L12.0644 99.25L12.6564 99.0712L13.1928 98.7635L10.4993 94.0676ZM317.102 105.945L167.731 15.4595L162.121 24.7201L311.492 115.205L317.102 105.945ZM166.858 206.085L317.099 115.207L311.495 105.943L161.254 196.821L166.858 206.085ZM166.415 206.928C166.396 206.584 166.563 206.263 166.858 206.085L161.254 196.821C157.4 199.152 155.373 203.343 155.604 207.525L166.415 206.928ZM166.409 207.655C166.409 207.63 166.41 207.606 166.411 207.583L155.608 206.869C155.589 207.145 155.581 207.421 155.582 207.699L166.409 207.655ZM166.611 256.154L166.409 207.654L155.582 207.7L155.784 256.199L166.611 256.154ZM17.7075 163.781L158.124 260.633L164.271 251.72L23.855 154.868L17.7075 163.781ZM17.4019 163.642C17.5012 163.666 17.6033 163.709 17.7075 163.781L23.855 154.868C22.6369 154.028 21.3045 153.444 19.9301 153.114L17.4019 163.642ZM13.2525 103.985V158.378H24.0796V103.985H13.2525ZM66.3332 70.4019L15.9725 99.289L21.3596 108.681L71.7203 79.7937L66.3332 70.4019ZM165.259 128.431L71.8808 70.4977L66.1728 79.6979L159.551 137.631L165.259 128.431ZM166.525 128.134C166.258 128.566 165.691 128.699 165.259 128.431L159.551 137.631C165.064 141.051 172.306 139.355 175.726 133.842L166.525 128.134ZM166.229 126.868C166.66 127.136 166.793 127.703 166.525 128.134L175.726 133.842C179.146 128.33 177.449 121.088 171.937 117.668L166.229 126.868ZM78.6564 72.5373L166.229 126.868L171.937 117.668L84.3644 63.337L78.6564 72.5373ZM162.232 15.3939L78.8168 63.2413L84.204 72.633L167.619 24.7857L162.232 15.3939ZM169.19 1.75765C165.682 0.419431 161.819 0.86782 158.759 2.78953L164.516 11.9591C164.764 11.803 165.073 11.7751 165.331 11.8736L169.19 1.75765ZM171.419 2.88799C170.71 2.42762 169.958 2.04806 169.177 1.75259L165.344 11.8787C165.407 11.9026 165.467 11.9327 165.521 11.968L171.419 2.88799ZM331.975 100.145L171.275 2.79776L165.665 12.0583L326.365 109.406L331.975 100.145ZM337.618 110.838C337.846 106.661 335.823 102.476 331.975 100.145L326.365 109.406C326.659 109.584 326.826 109.904 326.807 110.248L337.618 110.838ZM331.972 121.014C335.863 118.66 337.892 114.411 337.615 110.188L326.811 110.897C326.834 111.244 326.666 111.569 326.368 111.749L331.972 121.014ZM176.475 215.071L331.972 121.014L326.368 111.749L170.871 205.806L176.475 215.071ZM179.453 298.439L179.087 210.416L168.26 210.461L168.626 298.484L179.453 298.439ZM322.921 202.235L171.241 293.828L176.838 303.096L328.518 211.503L322.921 202.235ZM339.048 206.218C335.695 200.664 328.474 198.881 322.921 202.235L328.518 211.503C328.952 211.24 329.517 211.38 329.78 211.815L339.048 206.218ZM335.065 222.345C340.618 218.992 342.402 211.771 339.048 206.218L329.78 211.815C330.042 212.249 329.903 212.815 329.468 213.077L335.065 222.345ZM176.9 317.855L335.065 222.345L329.468 213.077L171.303 308.587L176.9 317.855ZM179.806 382.971L179.515 313.198L168.688 313.243L168.979 383.016L179.806 382.971ZM323.941 288.222L171.635 378.334L177.149 387.653L329.455 297.54L323.941 288.222ZM340.032 292.35C336.729 286.767 329.525 284.919 323.941 288.222L329.455 297.54C329.892 297.282 330.456 297.427 330.714 297.864L340.032 292.35ZM335.904 308.441C341.488 305.138 343.336 297.934 340.032 292.35L330.714 297.864C330.973 298.301 330.828 298.865 330.391 299.123L335.904 308.441ZM174.908 403.695L335.904 308.441L330.391 299.123L169.394 394.377L174.908 403.695ZM164.111 404.301C167.461 405.804 171.489 405.718 174.908 403.695L169.394 394.377C169.131 394.533 168.822 394.548 168.545 394.423L164.111 404.301ZM156.355 393.33C156.378 398.665 159.95 403.143 164.814 404.559L167.842 394.164C167.457 394.052 167.184 393.694 167.182 393.284L156.355 393.33ZM155.848 271.63L156.355 393.33L167.182 393.284L166.675 271.585L155.848 271.63ZM15.5923 177.709L158.188 276.064L164.336 267.151L21.7398 168.796L15.5923 177.709ZM24.0796 201.532V173.252H13.2525V201.532H24.0796ZM24.0796 298.599V201.532H13.2525V298.599H24.0796ZM12.333 310.346C18.8205 310.346 24.0796 305.087 24.0796 298.599H13.2525C13.2525 299.107 12.8408 299.519 12.333 299.519V310.346ZM0.586442 298.599C0.586442 305.087 5.84555 310.346 12.333 310.346V299.519C11.8252 299.519 11.4136 299.107 11.4136 298.599H0.586442ZM0.586442 201.532V298.599H11.4136V201.532H0.586442ZM0.586442 100.131V201.532H11.4136V100.131H0.586442ZM8.93408 88.8852C4.10926 90.3424 0.586442 94.8183 0.586442 100.131H11.4136C11.4136 99.7239 11.6823 99.3654 12.0644 99.25L8.93408 88.8852ZM158.944 2.67842L7.80569 89.3717L13.1928 98.7635L164.331 12.0702L158.944 2.67842Z" fill="white"/>
</svg>
