<?xml version="1.0" encoding="UTF-8"?>
<svg id="Layer_1" data-name="Layer 1" xmlns="http://www.w3.org/2000/svg" version="1.1" viewBox="0 0 50 50">
  <defs>
    <style>
      .cls-1 {
        stroke: #fff;
        stroke-width: 1.2px;
      }

      .cls-1, .cls-2 {
        fill: #231f20;
      }

      .cls-2 {
        fill-rule: evenodd;
        stroke-width: 0px;
      }
    </style>
  </defs>
  <path class="cls-1" d="M39.1,47.1h0s0,0,0,0t0,0l-2.8-1.4h-.3c0-.1-.3,0-.3,0l-2.8,1.4s0,0,0,0c0,0,0,0,0,0,0,0,0,0,0,0,0,0,0,0,0,0v-6.9c0,0,0-.1,0-.1,0,0,0,0,.1,0s.1,0,.1,0c0,0,0,0,0,.1v.6h5.9v-.6c0,0,0-.1,0-.1,0,0,0,0,.1,0s.1,0,.1,0c0,0,0,0,0,.1v6.9h0s0,0,0,0c0,0,0,0,0,0l.4.4-.4-.4s0,0,0,0c0,0,0,0,0,0Z"/>
  <path class="cls-2" d="M46.9,2.3H3.1c-.1,0-.2,0-.3,0,0,0-.2,0-.3.2,0,0-.1.2-.2.3,0,0,0,.2,0,.3v12.5c0,.2,0,.4.2.6.1.1.3.2.6.2s.4,0,.6-.2c.1-.1.2-.3.2-.6V3.9h42.2v30.5c0,.2,0,.4.2.6s.3.2.6.2.4,0,.6-.2.2-.3.2-.6V3.1c0-.1,0-.2,0-.3s0-.2-.2-.3c0,0-.2-.1-.3-.2,0,0-.2,0-.3,0Z"/>
  <path class="cls-2" d="M25,33.6H3.9v-15.1c0-.2,0-.4-.2-.6-.1-.1-.3-.2-.6-.2s-.4,0-.6.2c-.1.1-.2.3-.2.6v15.8c0,.1,0,.2,0,.3,0,0,0,.2.2.3,0,0,.2.1.3.2,0,0,.2,0,.3,0h21.9c.2,0,.4,0,.6-.2.1-.1.2-.3.2-.6s0-.4-.2-.6c-.1-.1-.3-.2-.6-.2Z"/>
  <path class="cls-2" d="M25,28.9h-11.8c-.2-1.2-.7-2.3-1.5-3.1s-1.9-1.4-3.1-1.5v-11.1c1.2-.2,2.3-.7,3.1-1.5s1.4-1.9,1.5-3.1h23.6c.2,1.2.7,2.3,1.5,3.1s1.9,1.4,3.1,1.5v10.2c0,.2,0,.4.2.6.1.1.3.2.6.2s.4,0,.6-.2c.1-.1.2-.3.2-.6v-10.9c0-.2,0-.4-.2-.6-.1-.1-.3-.2-.6-.2-1,0-2-.4-2.8-1.1-.4-.4-.7-.8-.8-1.3-.2-.5-.3-1-.3-1.5,0-.2,0-.4-.2-.5-.1-.1-.3-.2-.5-.2H12.5c-.2,0-.4,0-.6.2-.1.1-.2.3-.2.6,0,1-.4,2-1.1,2.8-.4.4-.8.7-1.3.8-.5.2-1,.3-1.5.3-.2,0-.4,0-.5.2-.1.1-.2.3-.2.5v12.5c0,.2,0,.4.2.6.1.1.3.2.6.2.5,0,1,0,1.5.3.5.2.9.5,1.3.8.4.4.7.8.8,1.3.2.5.3,1,.3,1.5,0,.1,0,.2,0,.3,0,0,0,.2.2.3,0,0,.2.1.3.2,0,0,.2,0,.3,0h12.5c.2,0,.4,0,.6-.2.1-.1.2-.3.2-.6s0-.4-.2-.6c-.1-.1-.3-.2-.6-.2Z"/>
  <path class="cls-2" d="M28.9,20.3c0-.6-.2-1.2-.7-1.7s-1-.7-1.7-.7h-.8v-1.6h2.3c.2,0,.4,0,.6-.2.1-.1.2-.3.2-.6s0-.4-.2-.6c-.1-.1-.3-.2-.6-.2h-2.3v-.8c0-.2,0-.4-.2-.6-.1-.1-.3-.2-.6-.2s-.4,0-.6.2c-.1.1-.2.3-.2.6v.8h-.8c-.6,0-1.2.2-1.7.7-.4.4-.7,1-.7,1.7s.2,1.2.7,1.7c.4.4,1,.7,1.7.7h.8v1.6h-2.3c-.2,0-.4,0-.6.2-.1.1-.2.3-.2.6s0,.4.2.6c.1.1.3.2.6.2h2.3v.8c0,.2,0,.4.2.6.1.1.3.2.6.2s.4,0,.6-.2c.1-.1.2-.3.2-.6v-.8h.8c.6,0,1.2-.2,1.7-.7s.7-1,.7-1.7ZM23.4,18c-.2,0-.4,0-.6-.2-.1-.1-.2-.3-.2-.6s0-.4.2-.6c.1-.1.3-.2.6-.2h.8v1.6h-.8ZM25.8,19.5h.8c.2,0,.4,0,.6.2.1.1.2.3.2.6s0,.4-.2.6c-.1.1-.3.2-.6.2h-.8v-1.6Z"/>
  <path class="cls-2" d="M35.9,24.2c-1.9,0-3.8.6-5.3,1.8-1.5,1.2-2.6,2.9-3,4.7-.5,1.9-.3,3.8.5,5.6.8,1.8,2.2,3.2,3.9,4.1.5.3,1,.5,1.6.6,1.5.4,3.2.4,4.7,0,.5-.2,1.1-.4,1.6-.6,1.7-.9,3.1-2.3,3.9-4.1.8-1.8,1-3.7.5-5.6-.5-1.9-1.5-3.5-3-4.7-1.5-1.2-3.4-1.8-5.3-1.8ZM38.8,39.2s0,0-.1,0c-.9.4-1.8.5-2.7.5s-1.9-.2-2.7-.5c0,0,0,0-.1,0-1.5-.7-2.7-1.8-3.4-3.2-.7-1.4-.9-3.1-.6-4.7s1.2-3,2.5-4c1.3-1,2.8-1.6,4.4-1.6s3.2.6,4.4,1.6c1.3,1,2.1,2.4,2.5,4,.3,1.6.1,3.2-.6,4.7-.7,1.4-1.9,2.6-3.4,3.2Z"/>
  <path class="cls-2" d="M35.9,28.9c-.8,0-1.5.2-2.2.7-.6.4-1.1,1-1.4,1.8-.3.7-.4,1.5-.2,2.3.2.8.5,1.5,1.1,2s1.2.9,2,1.1c.8.2,1.5,0,2.3-.2.7-.3,1.3-.8,1.8-1.4.4-.6.7-1.4.7-2.2,0-1-.4-2-1.1-2.8-.7-.7-1.7-1.1-2.8-1.1ZM35.9,35.2c-.5,0-.9-.1-1.3-.4-.4-.3-.7-.6-.9-1.1-.2-.4-.2-.9-.1-1.4,0-.5.3-.9.6-1.2.3-.3.7-.6,1.2-.6.5,0,.9,0,1.4.1.4.2.8.5,1.1.9.3.4.4.8.4,1.3,0,.3,0,.6-.2.9-.1.3-.3.5-.5.8s-.5.4-.8.5c-.3.1-.6.2-.9.2Z"/>
</svg>