<svg width="101" height="107" viewBox="0 0 101 107" fill="none" xmlns="http://www.w3.org/2000/svg">
<path d="M22.5419 75.7576L22.7929 75.5865L22.542 75.7577C31.9672 89.5785 43.1049 98.3256 50.3884 101.124L50.4973 101.166L50.6063 101.124C57.8897 98.3256 69.0275 89.5839 78.4528 75.7576C86.1835 64.4174 95.3485 45.8795 95.9509 21.1897L95.9581 20.8974L95.6663 20.8792C87.0579 20.3398 77.4491 17.3758 70.6106 14.8379L70.6104 14.8378C63.085 12.0516 55.4976 8.50872 50.6555 5.55584L50.4973 5.4594L50.3392 5.55584C45.4971 8.50872 37.9097 12.0516 30.3843 14.8378C23.54 17.3705 13.9367 20.3398 5.32841 20.8792L5.3474 21.1823L5.04375 21.1897C5.6462 45.8795 14.8112 64.4174 22.5419 75.7576ZM18.6533 78.4028L18.4023 78.5739L18.6533 78.4028C10.2841 66.1273 0.303743 45.7851 0.303743 18.6043C0.303743 17.305 1.35843 16.2503 2.65775 16.2503C10.1915 16.2503 19.8507 13.6756 28.5954 10.4549C37.3432 7.23315 45.2196 3.34845 49.1934 0.699233C49.9844 0.171914 51.0156 0.171914 51.8066 0.699233C55.7804 3.34845 63.6568 7.23315 72.4046 10.4549C81.1493 13.6756 90.8085 16.2503 98.3422 16.2503C99.6416 16.2503 100.696 17.305 100.696 18.6043C100.696 45.785 90.7159 66.1219 82.3468 78.4027C73.1519 91.8846 60.9312 102.661 51.2465 105.889C51.0053 105.97 50.7506 106.012 50.5027 106.012H50.4973C50.2494 106.012 49.9947 105.97 49.7535 105.889C40.0688 102.661 27.848 91.8899 18.6533 78.4028Z" fill="black" stroke="#EDE4E0" stroke-width="0.607487"/>
<path d="M46.8448 64.8435C46.3853 65.3031 45.7857 65.5293 45.1833 65.5306C44.5824 65.5293 43.9819 65.2989 43.5211 64.843C43.5209 64.8428 43.5207 64.8426 43.5205 64.8424L32.8906 54.2125C31.9727 53.2946 31.9727 51.8019 32.8906 50.884C33.8085 49.9661 35.3012 49.9661 36.2191 50.884L44.9684 59.6333L45.1832 59.8481L45.398 59.6333L70.0939 34.9375C71.0118 34.0196 72.5045 34.0196 73.4224 34.9375C74.3403 35.8554 74.3403 37.3481 73.4224 38.266L46.8448 64.8435Z" fill="black" stroke="#EDE4E0" stroke-width="0.607487"/>
</svg>
