<svg width="96" height="89" viewBox="0 0 96 89" fill="none" xmlns="http://www.w3.org/2000/svg">
<path d="M10.3215 76.0721H10.8215V75.5721V72.4649V71.9649H10.3215H7.21434C5.77416 71.9649 4.60717 70.798 4.60717 69.3578V7.21434C4.60717 5.77416 5.77416 4.60717 7.21434 4.60717H75.5721C77.0123 4.60717 78.1793 5.77416 78.1793 7.21434V10.3215V10.8215H78.6793H81.7865H82.2865V10.3215V7.21434C82.2865 3.50633 79.2801 0.5 75.5721 0.5H7.21434C3.50633 0.5 0.5 3.50633 0.5 7.21434V69.3578C0.5 73.0658 3.50633 76.0721 7.21434 76.0721H10.3215Z" fill="black" stroke="#EDE4E0"/>
<path d="M7.21875 6.71484H6.71875V7.21484V10.322V10.822H7.21875H10.3259H10.8259V10.322V7.21484V6.71484H10.3259H7.21875Z" fill="black" stroke="#EDE4E0"/>
<path d="M13.4297 6.71484H12.9297V7.21484V10.322V10.822H13.4297H16.5369H17.0369V10.322V7.21484V6.71484H16.5369H13.4297Z" fill="black" stroke="#EDE4E0"/>
<path d="M19.6484 6.71484H19.1484V7.21484V10.322V10.822H19.6484H22.7556H23.2556V10.322V7.21484V6.71484H22.7556H19.6484Z" fill="black" stroke="#EDE4E0"/>
<path d="M12.9297 81.7835C12.9297 85.4916 15.936 88.4979 19.644 88.4979H88.0018C91.7098 88.4979 94.7161 85.4916 94.7161 81.7835V19.6401C94.7161 15.9321 91.7098 12.9258 88.0018 12.9258H19.644C15.936 12.9258 12.9297 15.9321 12.9297 19.6401V81.7835ZM17.0369 19.6401C17.0369 18.1999 18.2038 17.033 19.644 17.033H88.0018C89.442 17.033 90.609 18.1999 90.609 19.6401V81.7835C90.609 83.2237 89.442 84.3907 88.0018 84.3907H19.644C18.2038 84.3907 17.0369 83.2237 17.0369 81.7835V19.6401Z" fill="black" stroke="#EDE4E0"/>
<path d="M19.6484 19.1406H19.1484V19.6406V22.7478V23.2478H19.6484H22.7556H23.2556V22.7478V19.6406V19.1406H22.7556H19.6484Z" fill="black" stroke="#EDE4E0"/>
<path d="M25.8594 19.1406H25.3594V19.6406V22.7478V23.2478H25.8594H28.9665H29.4665V22.7478V19.6406V19.1406H28.9665H25.8594Z" fill="black" stroke="#EDE4E0"/>
<path d="M32.0703 19.1406H31.5703V19.6406V22.7478V23.2478H32.0703H35.1775H35.6775V22.7478V19.6406V19.1406H35.1775H32.0703Z" fill="black" stroke="#EDE4E0"/>
<path d="M19.6484 25.3594H19.1484V25.8594V28.9665V29.4665H19.6484H88.0062H88.5062V28.9665V25.8594V25.3594H88.0062H19.6484Z" fill="black" stroke="#EDE4E0"/>
<path d="M19.6484 33.125H19.1484V33.625V36.7322V37.2322H19.6484H32.0771H32.5771V36.7322V33.625V33.125H32.0771H19.6484Z" fill="black" stroke="#EDE4E0"/>
<path d="M19.6484 39.3398H19.1484V39.8398V42.947V43.447H19.6484H28.97H29.47V42.947V39.8398V39.3398H28.97H19.6484Z" fill="black" stroke="#EDE4E0"/>
<path d="M53.821 45.5547H53.8204C47.5377 45.5547 42.4453 50.6471 42.4453 56.9298C42.4453 63.2125 47.5377 68.3049 53.8204 68.3049C60.1031 68.3049 65.1955 63.2125 65.1955 56.9298V56.9292C65.1882 50.6505 60.0997 45.562 53.821 45.5547ZM53.8204 64.1977C49.8067 64.1977 46.5525 60.9435 46.5525 56.9298C46.5525 52.9161 49.8067 49.6619 53.8204 49.6619C57.8341 49.6619 61.0883 52.9161 61.0883 56.9298C61.0829 60.9415 57.8322 64.1923 53.8204 64.1977Z" fill="black" stroke="#EDE4E0"/>
<path d="M67.0079 73.8017L70.6945 70.1134L68.4211 67.8385L68.4209 67.8384C67.76 67.1765 67.6287 66.15 68.1048 65.3435C68.8899 64.0122 69.4837 62.576 69.869 61.0793L69.8691 61.0789C70.1031 60.1729 70.9203 59.5388 71.857 59.5388H75.0763V54.3244H71.857C70.9203 54.3244 70.1031 53.6902 69.8691 52.7843L69.869 52.7839C69.4837 51.2872 68.8899 49.851 68.1048 48.5197C67.6287 47.7131 67.76 46.6867 68.4209 46.0248L68.4211 46.0246L70.6945 43.7498L67.0079 40.0615L64.7332 42.3365L64.733 42.3367C64.0706 42.9986 63.044 43.1293 62.2373 42.6529C60.9058 41.8677 59.4704 41.2736 57.9739 40.8888L57.9734 40.8886C57.0675 40.6546 56.4333 39.8374 56.4333 38.9007V35.6814H51.219V38.8948C51.219 39.8303 50.5849 40.6485 49.6786 40.8821L49.6783 40.8822C48.182 41.267 46.7465 41.8618 45.4148 42.6464C44.6084 43.1229 43.5819 42.9934 42.9192 42.3312L42.919 42.331L40.6443 40.0554L36.9577 43.7436L39.2312 46.0184L39.2313 46.0186C39.8922 46.6805 40.0219 47.7054 39.5479 48.5115C39.2614 49.0001 38.9998 49.5034 38.7641 50.0195L38.7637 50.0205C38.3551 50.9105 38.0268 51.8346 37.7834 52.7835L37.7832 52.7843C37.5491 53.6902 36.7319 54.3244 35.7952 54.3244H32.5759V59.5388H35.7952C36.7319 59.5388 37.5491 60.1729 37.7832 61.0789L37.7833 61.0793C38.1686 62.576 38.7623 64.0122 39.5475 65.3435C40.0235 66.15 39.8922 67.1765 39.2313 67.8384L39.2312 67.8385L36.9577 70.1133L40.6444 73.8017L42.919 71.5267L42.9192 71.5265C43.5817 70.8645 44.6085 70.7338 45.4153 71.2104C46.7466 71.9956 48.182 72.5896 49.6783 72.9744L49.6788 72.9745C50.5848 73.2086 51.219 74.0258 51.219 74.9625V78.1818H56.4333V74.9625C56.4333 74.0258 57.0675 73.2086 57.9734 72.9745L57.9739 72.9744C59.4703 72.5896 60.9056 71.9956 62.2369 71.2104L67.0079 73.8017ZM67.0079 73.8017L64.7332 71.5267L64.733 71.5265C64.0706 70.8646 63.044 70.7339 62.2373 71.2103L67.0079 73.8017ZM75.052 45.2019L75.0524 45.2014C75.8531 44.3992 75.8531 43.1001 75.0524 42.2978L75.0521 42.2975L68.4602 35.7056L68.4599 35.7053C67.6576 34.9046 66.3586 34.9046 65.5563 35.7053L65.5559 35.7056L62.909 38.353C62.1403 37.9774 61.3493 37.6504 60.5405 37.3734V33.6278C60.5405 32.4933 59.6214 31.5742 58.4869 31.5742H49.1654C48.0309 31.5742 47.1118 32.4933 47.1118 33.6278V37.3734C46.303 37.6504 45.5119 37.9774 44.7433 38.353L42.0963 35.7056L42.0959 35.7053C41.2937 34.9046 39.9946 34.9046 39.1923 35.7053L39.192 35.7056L32.6001 42.2975L32.5998 42.2978C31.7991 43.1001 31.7991 44.3992 32.5998 45.2014L32.6002 45.2018L35.2472 47.8485C35.1724 48.0008 35.0992 48.1543 35.0283 48.3092L35.0283 48.3093C34.743 48.9326 34.4893 49.569 34.2677 50.2172H30.5223C29.3878 50.2172 28.4688 51.1363 28.4688 52.2708V61.5923C28.4688 62.7268 29.3878 63.6459 30.5223 63.6459H34.2677C34.5444 64.4552 34.8716 65.2468 35.2485 66.0149L32.6003 68.6613L32.5998 68.6618C31.7991 69.464 31.7991 70.7631 32.5998 71.5654L32.6001 71.5657L39.192 78.1576L39.1923 78.1579C39.9946 78.9586 41.2937 78.9586 42.0959 78.1579L42.0963 78.1575L44.7433 75.5102C45.5119 75.8857 46.303 76.2128 47.1118 76.4898V80.2354C47.1118 81.3699 48.0309 82.289 49.1654 82.289H58.4869C59.6214 82.289 60.5405 81.3699 60.5405 80.2354V76.4898C61.3493 76.2128 62.1403 75.8858 62.909 75.5102L65.5559 78.1575L65.5563 78.1579C66.3586 78.9586 67.6576 78.9586 68.4599 78.1579L68.4602 78.1576L75.0521 71.5657L75.0524 71.5654C75.8531 70.7631 75.8531 69.464 75.0524 68.6618L75.052 68.6613L72.4038 66.0149C72.7806 65.2468 73.1078 64.4552 73.3846 63.6459H77.1299C78.2644 63.6459 79.1835 62.7268 79.1835 61.5923V52.2708C79.1835 51.1363 78.2644 50.2172 77.1299 50.2172H73.3846C73.1078 49.408 72.7806 48.6164 72.4038 47.8483L75.052 45.2019Z" fill="black" stroke="#EDE4E0"/>
<path d="M78.6797 78.1797H78.1797V78.6797V81.7869V82.2869H78.6797H88.0012H88.5012V81.7869V78.6797V78.1797H88.0012H78.6797Z" fill="black" stroke="#EDE4E0"/>
</svg>
